<svg width="198" height="242" viewBox="0 0 198 242" fill="none" xmlns="http://www.w3.org/2000/svg">
<g clip-path="url(#clip0_1878_1594)">
<rect width="198" height="242" fill="black"/>
<rect width="198" height="242" fill="url(#paint0_linear_1878_1594)" fill-opacity="0.3"/>
<path d="M16.5039 37.686V39.7368C16.5039 40.8436 16.6585 41.7876 16.9678 42.5688C17.277 43.342 17.7287 43.932 18.3228 44.3389C18.925 44.7458 19.6493 44.9492 20.4956 44.9492C21.228 44.9492 21.8628 44.8109 22.3999 44.5342C22.9451 44.2493 23.3683 43.8547 23.6694 43.3501C23.9787 42.8455 24.1374 42.2718 24.1455 41.6289H26.8433C26.8433 41.6533 26.8433 41.6859 26.8433 41.7266C26.8433 41.7591 26.8433 41.7876 26.8433 41.812C26.8433 42.8862 26.5666 43.8384 26.0132 44.6685C25.4679 45.4985 24.7152 46.1496 23.7549 46.6216C22.8027 47.0936 21.7122 47.3296 20.4834 47.3296C19.0511 47.3296 17.8304 47.0285 16.8213 46.4263C15.8122 45.8159 15.0391 44.9411 14.502 43.8018C13.973 42.6624 13.7085 41.3034 13.7085 39.7246V37.686C13.7085 36.091 13.973 34.7197 14.502 33.5723C15.0391 32.4248 15.8122 31.5459 16.8213 30.9355C17.8304 30.3171 19.0511 30.0078 20.4834 30.0078C21.4111 30.0078 22.2616 30.1502 23.0347 30.4351C23.8078 30.7118 24.4751 31.1064 25.0366 31.6191C25.6063 32.1237 26.0498 32.73 26.3672 33.438C26.6846 34.1379 26.8433 34.911 26.8433 35.7573C26.8433 35.7817 26.8433 35.8102 26.8433 35.8428C26.8433 35.8753 26.8433 35.9079 26.8433 35.9404H24.1455C24.1374 35.2406 23.9787 34.6261 23.6694 34.0972C23.3683 33.5682 22.9451 33.1532 22.3999 32.8521C21.8628 32.5509 21.228 32.4004 20.4956 32.4004C19.6493 32.4004 18.925 32.6038 18.3228 33.0107C17.7287 33.4176 17.277 34.0158 16.9678 34.8052C16.6585 35.5946 16.5039 36.5549 16.5039 37.686ZM34.8999 33.8774C36.1369 33.8774 37.1785 34.146 38.0249 34.6831C38.8794 35.2121 39.5264 35.9364 39.9658 36.856C40.4053 37.7756 40.625 38.8254 40.625 40.0054V41.043C40.625 42.2474 40.4053 43.3175 39.9658 44.2534C39.5264 45.1812 38.8794 45.9095 38.0249 46.4385C37.1785 46.9593 36.1369 47.2197 34.8999 47.2197C33.6629 47.2197 32.6131 46.9593 31.7505 46.4385C30.896 45.9095 30.249 45.1812 29.8096 44.2534C29.3701 43.3175 29.1504 42.2474 29.1504 41.043V40.0054C29.1504 38.8335 29.3701 37.7878 29.8096 36.8682C30.2572 35.9486 30.9082 35.2202 31.7627 34.6831C32.6172 34.146 33.6629 33.8774 34.8999 33.8774ZM34.8999 36.0503C34.2326 36.0503 33.6711 36.2212 33.2153 36.563C32.7677 36.9048 32.4341 37.3768 32.2144 37.979C31.9946 38.5731 31.8848 39.2607 31.8848 40.042V41.0308C31.8848 41.8039 31.9946 42.4915 32.2144 43.0938C32.4341 43.6878 32.7677 44.1598 33.2153 44.5098C33.6629 44.8597 34.2244 45.0347 34.8999 45.0347C35.5754 45.0347 36.1328 44.8597 36.5723 44.5098C37.0199 44.1598 37.3535 43.6878 37.5732 43.0938C37.793 42.4915 37.9028 41.8039 37.9028 41.0308V40.042C37.9028 39.2526 37.7889 38.5609 37.561 37.9668C37.3413 37.3646 37.0117 36.8966 36.5723 36.563C36.1328 36.2212 35.5754 36.0503 34.8999 36.0503ZM54.3823 34.0972V47H51.7212V45.2056H51.5991C51.4608 45.5392 51.2329 45.8607 50.9155 46.1699C50.5981 46.4792 50.1872 46.7274 49.6826 46.9146C49.1781 47.1017 48.5758 47.1953 47.876 47.1953C46.9971 47.1953 46.2199 47.0285 45.5444 46.6948C44.869 46.353 44.34 45.8485 43.9575 45.1812C43.5832 44.5138 43.396 43.6797 43.396 42.6787V34.0972H46.106V41.9341C46.106 42.6828 46.2321 43.2728 46.4844 43.7041C46.7448 44.1273 47.0825 44.4243 47.4976 44.5952C47.9126 44.7661 48.3643 44.8516 48.8525 44.8516C49.3978 44.8516 49.882 44.7417 50.3052 44.522C50.7284 44.2941 51.062 43.9604 51.3062 43.521C51.5503 43.0815 51.6724 42.5404 51.6724 41.8975V34.0972H54.3823ZM57.8247 47V34.0972H60.5347V35.7939H60.6323C60.7381 35.5254 60.9172 35.2446 61.1694 34.9517C61.4299 34.6587 61.7716 34.4146 62.1948 34.2192C62.618 34.0158 63.1266 33.9141 63.7207 33.9141C63.8997 33.9141 64.0625 33.9222 64.209 33.9385C64.3636 33.9466 64.506 33.9629 64.6362 33.9873V36.3799C64.5142 36.3473 64.3473 36.3229 64.1357 36.3066C63.9242 36.2904 63.7044 36.2822 63.4766 36.2822C62.7523 36.2822 62.1785 36.4206 61.7554 36.6973C61.3322 36.9658 61.027 37.332 60.8398 37.7959C60.6608 38.2598 60.5713 38.7806 60.5713 39.3584V47H57.8247ZM66.3086 37.8691C66.3086 36.9333 66.5405 36.1724 67.0044 35.5864C67.4764 35.0005 68.0908 34.5692 68.8477 34.2925C69.6126 34.0158 70.4305 33.8774 71.3013 33.8774C72.3185 33.8774 73.1812 34.0483 73.8892 34.3901C74.5972 34.7238 75.1383 35.1836 75.5127 35.7695C75.887 36.3555 76.0742 37.0309 76.0742 37.7959H73.6328C73.6084 37.4948 73.5189 37.1978 73.3643 36.9048C73.2096 36.6118 72.9614 36.3717 72.6196 36.1846C72.2778 35.9893 71.814 35.8916 71.228 35.8916C70.5363 35.8916 69.9748 36.0422 69.5435 36.3433C69.1203 36.6362 68.9087 37.0553 68.9087 37.6006C68.9087 37.9424 69.0063 38.2191 69.2017 38.4307C69.4051 38.6423 69.6655 38.8132 69.9829 38.9434C70.3084 39.0736 70.6624 39.1794 71.0449 39.2607C71.4274 39.3421 71.8018 39.4154 72.168 39.4805C72.9736 39.6188 73.6979 39.8141 74.3408 40.0664C74.9837 40.3187 75.4924 40.6849 75.8667 41.165C76.2492 41.637 76.4404 42.2799 76.4404 43.0938C76.4404 43.9645 76.2207 44.7091 75.7812 45.3276C75.3499 45.9461 74.7355 46.4181 73.938 46.7437C73.1405 47.061 72.2005 47.2197 71.1182 47.2197C70.0846 47.2197 69.1895 47.0651 68.4326 46.7559C67.6758 46.4466 67.0898 46.0112 66.6748 45.4497C66.2679 44.8882 66.0645 44.2209 66.0645 43.4478H68.7012C68.75 43.7977 68.8802 44.1069 69.0918 44.3755C69.3115 44.6359 69.6045 44.8394 69.9707 44.9858C70.3451 45.1323 70.7845 45.2056 71.2891 45.2056C71.8669 45.2056 72.3389 45.1242 72.7051 44.9614C73.0794 44.7987 73.3561 44.583 73.5352 44.3145C73.7142 44.0459 73.8037 43.7529 73.8037 43.4355C73.8037 42.988 73.6532 42.6502 73.3521 42.4224C73.0509 42.1864 72.6562 42.0073 72.168 41.8853C71.6878 41.755 71.1589 41.637 70.5811 41.5312C69.7998 41.3604 69.0837 41.1447 68.4326 40.8843C67.7816 40.6157 67.2648 40.2414 66.8823 39.7612C66.4998 39.2811 66.3086 38.6504 66.3086 37.8691Z" fill="#0065A8"/>
<path d="M153.084 25.1821H154.919C154.963 25.3481 155.06 25.5114 155.209 25.6719C155.364 25.8268 155.564 25.9541 155.807 26.0537C156.056 26.1533 156.349 26.2031 156.687 26.2031C157.168 26.2031 157.578 26.0924 157.916 25.8711C158.253 25.6497 158.524 25.3426 158.729 24.9497C158.939 24.5568 159.089 24.103 159.177 23.5884C159.266 23.0682 159.302 22.512 159.285 21.9199H159.177C159.067 22.2132 158.892 22.4899 158.654 22.75C158.416 23.0046 158.112 23.2093 157.741 23.3643C157.376 23.5192 156.942 23.5967 156.438 23.5967C155.779 23.5967 155.174 23.45 154.62 23.1567C154.072 22.8634 153.632 22.4346 153.3 21.8701C152.968 21.3057 152.802 20.6222 152.802 19.8198C152.802 19.0119 152.979 18.3201 153.333 17.7446C153.693 17.1691 154.18 16.7264 154.794 16.4165C155.409 16.1066 156.1 15.9517 156.87 15.9517C157.406 15.9517 157.924 16.043 158.422 16.2256C158.925 16.4027 159.376 16.7043 159.775 17.1304C160.173 17.5565 160.489 18.1375 160.721 18.8735C160.959 19.604 161.078 20.5254 161.078 21.6377C161.078 22.9769 160.915 24.1003 160.588 25.0078C160.267 25.9098 159.78 26.5905 159.127 27.0498C158.474 27.5036 157.65 27.7305 156.654 27.7305C156.095 27.7305 155.6 27.6613 155.168 27.5229C154.736 27.3791 154.371 27.1854 154.072 26.9419C153.779 26.6984 153.549 26.4245 153.383 26.1201C153.217 25.8158 153.118 25.5031 153.084 25.1821ZM158.995 19.8447C158.995 19.3411 158.898 18.915 158.704 18.5664C158.51 18.2122 158.248 17.9411 157.916 17.7529C157.589 17.5648 157.213 17.4707 156.787 17.4707C156.394 17.4707 156.034 17.5648 155.708 17.7529C155.381 17.9355 155.121 18.2012 154.927 18.5498C154.734 18.8984 154.637 19.3218 154.637 19.8198C154.637 20.3289 154.736 20.7523 154.936 21.0898C155.135 21.4274 155.4 21.682 155.732 21.8535C156.064 22.0195 156.427 22.1025 156.82 22.1025C157.202 22.1025 157.559 22.0195 157.891 21.8535C158.223 21.6875 158.488 21.4385 158.688 21.1064C158.892 20.7689 158.995 20.3483 158.995 19.8447ZM163.386 24.7754C163.386 24.388 163.513 24.0726 163.768 23.8291C164.022 23.5856 164.332 23.4639 164.697 23.4639C165.074 23.4639 165.389 23.5856 165.644 23.8291C165.904 24.0726 166.034 24.388 166.034 24.7754C166.034 25.1517 165.904 25.4616 165.644 25.7051C165.389 25.943 165.074 26.062 164.697 26.062C164.332 26.062 164.022 25.943 163.768 25.7051C163.513 25.4616 163.386 25.1517 163.386 24.7754ZM163.386 19.1641C163.386 18.7712 163.513 18.4557 163.768 18.2178C164.022 17.9743 164.332 17.8525 164.697 17.8525C165.074 17.8525 165.389 17.9743 165.644 18.2178C165.904 18.4613 166.034 18.7767 166.034 19.1641C166.034 19.5404 165.904 19.8475 165.644 20.0854C165.389 20.3234 165.074 20.4424 164.697 20.4424C164.332 20.4424 164.022 20.3234 163.768 20.0854C163.513 19.8475 163.386 19.5404 163.386 19.1641ZM172.749 16.1924H175.488V23.7461H176.916V25.3149H175.488V27.5229H173.704V25.3149H168.217V23.7295C168.903 22.4622 169.636 21.2033 170.417 19.9526C171.197 18.6965 171.974 17.443 172.749 16.1924ZM169.985 23.7461H173.704V17.6948H173.612C172.993 18.6356 172.37 19.6178 171.745 20.6416C171.119 21.6598 170.533 22.6698 169.985 23.6714V23.7461ZM183.391 27.5229H181.531V18.085H181.44C181.147 18.2897 180.856 18.4972 180.568 18.7075C180.281 18.9123 179.993 19.1198 179.705 19.3301C179.417 19.5348 179.13 19.7424 178.842 19.9526V18.1597C179.29 17.8276 179.738 17.4984 180.187 17.1719C180.635 16.8454 181.083 16.5189 181.531 16.1924H183.391V27.5229Z" fill="white"/>
<circle cx="193" cy="83" r="3" fill="white" fill-opacity="0.35"/>
<circle cx="193" cy="75" r="3" fill="white" fill-opacity="0.35"/>
<circle cx="193" cy="67" r="3" fill="white" fill-opacity="0.35"/>
<circle cx="193" cy="59" r="3" fill="white"/>
<rect x="12" y="56" width="4.67213" height="60" rx="2.33607" fill="#0065A8"/>
<path d="M25.7229 72H22.992V60.6694H30.5374V62.8608H25.7229V65.6001H30.0974V67.7251H25.7229V72ZM32.239 72V63.1348H34.887V64.5376H35.0115C35.0668 64.3328 35.1775 64.1143 35.3435 63.8818C35.5095 63.6439 35.7392 63.4391 36.0325 63.2676C36.3258 63.096 36.6855 63.0103 37.1116 63.0103C37.2997 63.0103 37.4575 63.0158 37.5847 63.0269C37.712 63.0379 37.8199 63.0573 37.9085 63.085V65.3345C37.8144 65.3013 37.6788 65.2764 37.5017 65.2598C37.3246 65.2376 37.1365 65.2266 36.9373 65.2266C36.4835 65.2266 36.11 65.3096 35.8167 65.4756C35.5234 65.6361 35.3076 65.8657 35.1692 66.1646C35.0309 66.4578 34.9617 66.8009 34.9617 67.1938V72H32.239ZM41.9426 72.1328C41.0794 72.1328 40.3738 71.8949 39.8259 71.4189C39.2836 70.9375 39.0125 70.2734 39.0125 69.4268C39.0125 68.6188 39.2836 67.9741 39.8259 67.4927C40.3738 67.0057 41.1624 66.7622 42.1917 66.7622H44.2586V66.0234C44.2586 65.6637 44.1479 65.3926 43.9265 65.21C43.7052 65.0273 43.4063 64.936 43.03 64.936C42.781 64.936 42.5707 64.9748 42.3992 65.0522C42.2276 65.1242 42.0921 65.2266 41.9924 65.3594C41.8984 65.4922 41.8403 65.6444 41.8181 65.8159H39.3362C39.3528 65.4618 39.4303 65.1187 39.5686 64.7866C39.707 64.4491 39.92 64.1475 40.2078 63.8818C40.4955 63.6107 40.8746 63.3976 41.345 63.2427C41.8154 63.0822 42.3909 63.002 43.0715 63.002C43.7743 63.002 44.4107 63.1016 44.9807 63.3008C45.5562 63.5 46.0128 63.8265 46.3504 64.2803C46.6935 64.734 46.865 65.3428 46.865 66.1064V72H44.3831V70.9126H44.2586C44.159 71.1118 44.0095 71.3055 43.8103 71.4937C43.6166 71.6818 43.3648 71.8368 43.0549 71.9585C42.7506 72.0747 42.3798 72.1328 41.9426 72.1328ZM42.8557 70.2817C43.1048 70.2817 43.3344 70.2319 43.5447 70.1323C43.7605 70.0272 43.9321 69.8861 44.0593 69.709C44.1922 69.5264 44.2586 69.3161 44.2586 69.0781V68.2148H42.8889C42.4739 68.2148 42.1585 68.3089 41.9426 68.4971C41.7268 68.6852 41.6189 68.9287 41.6189 69.2275C41.6189 69.5817 41.7434 69.8473 41.9924 70.0244C42.247 70.196 42.5348 70.2817 42.8557 70.2817ZM49.1643 72V63.1348H51.7293V64.6704H51.8621C51.9395 64.4435 52.0751 64.2028 52.2688 63.9482C52.468 63.6882 52.7447 63.4668 53.0989 63.2842C53.4586 63.096 53.9151 63.002 54.4685 63.002C55.3595 63.002 56.0706 63.262 56.6018 63.7822C57.1331 64.3024 57.3987 65.0882 57.3987 66.1396V72H54.7507V66.8452C54.7507 66.4246 54.6843 66.0954 54.5515 65.8574C54.4187 65.6195 54.2472 65.4507 54.0369 65.3511C53.8266 65.2459 53.6025 65.1934 53.3645 65.1934C53.0602 65.1934 52.789 65.2708 52.551 65.4258C52.3186 65.5752 52.136 65.7938 52.0032 66.0815C51.8759 66.3638 51.8123 66.7041 51.8123 67.1025V72H49.1643ZM63.2341 75.9927C62.9685 75.9927 62.7389 75.9788 62.5452 75.9512C62.3515 75.9235 62.2021 75.8931 62.0969 75.8599V74.7559C62.2076 74.7891 62.346 74.8167 62.512 74.8389C62.6835 74.861 62.8495 74.8721 63.01 74.8721C63.248 74.8721 63.4527 74.8389 63.6243 74.7725C63.8014 74.7061 63.8899 74.5898 63.8899 74.4238C63.8899 74.2744 63.8263 74.1582 63.699 74.0752C63.5772 73.9977 63.3033 73.959 62.8772 73.959H62.4124V73.021L62.7527 72.1162C62.061 72.0332 61.4578 71.8201 60.9431 71.4771C60.434 71.134 60.0383 70.6663 59.7561 70.0742C59.4794 69.4821 59.3411 68.7793 59.3411 67.9658V67.0859C59.3411 66.2669 59.5043 65.5503 59.8308 64.936C60.1629 64.3162 60.6332 63.8348 61.242 63.4917C61.8562 63.1486 62.5895 62.9771 63.4417 62.9771C64.2496 62.9771 64.9358 63.1237 65.5003 63.417C66.0647 63.7103 66.4964 64.1087 66.7952 64.6123C67.0995 65.1159 67.2545 65.6831 67.26 66.314H64.8694C64.8528 66.1037 64.7947 65.8989 64.6951 65.6997C64.601 65.5005 64.4571 65.3345 64.2634 65.2017C64.0698 65.0688 63.8235 65.0024 63.5247 65.0024C63.0432 65.0024 62.6669 65.1934 62.3958 65.5752C62.1301 65.957 61.9973 66.4661 61.9973 67.1025V67.9409C61.9973 68.6382 62.1329 69.175 62.4041 69.5513C62.6752 69.9276 63.0488 70.1157 63.5247 70.1157C63.8567 70.1157 64.1168 70.0576 64.3049 69.9414C64.4986 69.8252 64.6397 69.673 64.7283 69.4849C64.8168 69.2967 64.8722 69.0947 64.8943 68.8789H67.2849C67.2739 69.5098 67.141 70.0521 66.8865 70.5059C66.6319 70.9596 66.275 71.3221 65.8157 71.5933C65.3619 71.8589 64.8279 72.0304 64.2136 72.1079L63.8899 72.9131C64.2164 72.9131 64.4931 72.9712 64.72 73.0874C64.9524 73.2091 65.1267 73.3752 65.2429 73.5854C65.3647 73.8013 65.4256 74.0503 65.4256 74.3325C65.4256 74.7088 65.337 75.0187 65.1599 75.2622C64.9884 75.5057 64.7394 75.6883 64.4129 75.8101C64.0864 75.9318 63.6935 75.9927 63.2341 75.9927ZM71.6926 72.1328C70.8294 72.1328 70.1238 71.8949 69.5759 71.4189C69.0336 70.9375 68.7625 70.2734 68.7625 69.4268C68.7625 68.6188 69.0336 67.9741 69.5759 67.4927C70.1238 67.0057 70.9124 66.7622 71.9417 66.7622H74.0086V66.0234C74.0086 65.6637 73.8979 65.3926 73.6765 65.21C73.4552 65.0273 73.1563 64.936 72.78 64.936C72.531 64.936 72.3207 64.9748 72.1492 65.0522C71.9776 65.1242 71.8421 65.2266 71.7424 65.3594C71.6484 65.4922 71.5903 65.6444 71.5681 65.8159H69.0862C69.1028 65.4618 69.1803 65.1187 69.3186 64.7866C69.457 64.4491 69.67 64.1475 69.9578 63.8818C70.2455 63.6107 70.6246 63.3976 71.095 63.2427C71.5654 63.0822 72.1409 63.002 72.8215 63.002C73.5243 63.002 74.1607 63.1016 74.7307 63.3008C75.3062 63.5 75.7628 63.8265 76.1004 64.2803C76.4435 64.734 76.615 65.3428 76.615 66.1064V72H74.1331V70.9126H74.0086C73.909 71.1118 73.7595 71.3055 73.5603 71.4937C73.3666 71.6818 73.1148 71.8368 72.8049 71.9585C72.5006 72.0747 72.1298 72.1328 71.6926 72.1328ZM72.6057 70.2817C72.8548 70.2817 73.0844 70.2319 73.2947 70.1323C73.5105 70.0272 73.6821 69.8861 73.8093 69.709C73.9422 69.5264 74.0086 69.3161 74.0086 69.0781V68.2148H72.6389C72.2239 68.2148 71.9085 68.3089 71.6926 68.4971C71.4768 68.6852 71.3689 68.9287 71.3689 69.2275C71.3689 69.5817 71.4934 69.8473 71.7424 70.0244C71.997 70.196 72.2848 70.2817 72.6057 70.2817ZM79.0471 72V63.1348H81.6951V72H79.0471ZM78.7898 60.603C78.7898 60.1991 78.9337 59.8753 79.2215 59.6318C79.5092 59.3883 79.891 59.2666 80.367 59.2666C80.8373 59.2666 81.2164 59.3883 81.5042 59.6318C81.7975 59.8753 81.9441 60.1991 81.9441 60.603C81.9441 61.0015 81.8002 61.3224 81.5125 61.5659C81.2247 61.8039 80.8429 61.9229 80.367 61.9229C79.8966 61.9229 79.5147 61.8039 79.2215 61.5659C78.9337 61.3224 78.7898 61.0015 78.7898 60.603ZM83.9114 65.7993C83.9114 65.1187 84.0829 64.5736 84.426 64.1641C84.7747 63.749 85.2312 63.4474 85.7957 63.2593C86.3657 63.0711 86.9799 62.9771 87.6384 62.9771C88.3191 62.9771 88.9251 63.0767 89.4563 63.2759C89.9876 63.4751 90.4026 63.7739 90.7014 64.1724C91.0058 64.5653 91.158 65.055 91.158 65.6416H88.8504C88.8338 65.4811 88.7757 65.3317 88.676 65.1934C88.582 65.0495 88.4464 64.9333 88.2693 64.8447C88.0922 64.7507 87.8681 64.7036 87.5969 64.7036C87.2151 64.7036 86.9218 64.7866 86.7171 64.9526C86.5123 65.1187 86.4099 65.3345 86.4099 65.6001C86.4099 65.8049 86.4874 65.9709 86.6423 66.0981C86.7973 66.2199 86.9937 66.3195 87.2317 66.397C87.4752 66.4689 87.7325 66.527 88.0037 66.5713C88.2748 66.61 88.5266 66.646 88.759 66.6792C89.3014 66.7677 89.7745 66.9116 90.1785 67.1108C90.5825 67.3045 90.8951 67.5701 91.1165 67.9077C91.3434 68.2453 91.4568 68.6769 91.4568 69.2026C91.4568 69.8169 91.3019 70.3454 90.992 70.7881C90.6821 71.2308 90.2311 71.5711 89.6389 71.8091C89.0523 72.047 88.3357 72.166 87.489 72.166C86.6756 72.166 85.9894 72.0526 85.4304 71.8257C84.8715 71.5933 84.4454 71.2751 84.1521 70.8711C83.8644 70.4671 83.7205 70.0023 83.7205 69.4766H86.2854C86.3076 69.6592 86.3712 69.8224 86.4763 69.9663C86.5815 70.1102 86.7281 70.2236 86.9163 70.3066C87.11 70.3841 87.3424 70.4229 87.6135 70.4229C87.9179 70.4229 88.1642 70.3841 88.3523 70.3066C88.5405 70.2236 88.6788 70.113 88.7673 69.9746C88.8559 69.8307 88.9002 69.6758 88.9002 69.5098C88.9002 69.2552 88.795 69.0671 88.5847 68.9453C88.3744 68.818 88.1033 68.724 87.7713 68.6631C87.4392 68.5967 87.0878 68.5275 86.7171 68.4556C86.2024 68.356 85.732 68.2093 85.3059 68.0156C84.8798 67.8219 84.5395 67.548 84.2849 67.1938C84.0359 66.8397 83.9114 66.3748 83.9114 65.7993Z" fill="white"/>
<path d="M23.241 92V80.6694H27.5408C28.5092 80.6694 29.2784 80.9185 29.8484 81.4165C30.4184 81.9146 30.7034 82.5952 30.7034 83.4585C30.7034 83.8846 30.6314 84.2664 30.4876 84.604C30.3437 84.936 30.1362 85.2155 29.865 85.4424C29.5938 85.6693 29.2646 85.8408 28.8772 85.957V86.0234C29.3808 86.0898 29.8152 86.242 30.1804 86.48C30.5512 86.7179 30.8362 87.0361 31.0354 87.4346C31.2402 87.8275 31.3425 88.2896 31.3425 88.8208C31.3425 89.4849 31.1821 90.0549 30.8611 90.5308C30.5401 91.0011 30.0836 91.3636 29.4915 91.6182C28.8993 91.8727 28.1993 92 27.3914 92H23.241ZM24.76 81.981V85.5337H26.47C27.0953 85.5337 27.6044 85.4701 27.9973 85.3428C28.3958 85.21 28.6891 85.0107 28.8772 84.7451C29.0709 84.474 29.1677 84.1309 29.1677 83.7158C29.1677 83.168 29.0017 82.7419 28.6697 82.4375C28.3377 82.1331 27.8728 81.981 27.2752 81.981H24.76ZM24.76 86.812V90.6885H26.7024C27.7981 90.6885 28.5839 90.5418 29.0598 90.2485C29.5413 89.9497 29.782 89.4738 29.782 88.8208C29.782 88.3947 29.6907 88.0322 29.5081 87.7334C29.3255 87.4346 29.0571 87.2077 28.7029 87.0527C28.3543 86.8923 27.9309 86.812 27.4329 86.812H24.76ZM37.3606 92H35.8499V82.3047H35.7752C35.4819 82.515 35.1886 82.7253 34.8953 82.9355C34.6075 83.1458 34.317 83.3561 34.0237 83.5664C33.7359 83.7767 33.4454 83.9897 33.1521 84.2056V82.6699C33.6004 82.3324 34.0486 81.9976 34.4968 81.6655C34.9506 81.3335 35.4016 81.0015 35.8499 80.6694H37.3606V92ZM42.2332 86.1396V86.5381C42.2332 87.4456 42.3355 88.2259 42.5403 88.8789C42.7506 89.5319 43.0439 90.0355 43.4202 90.3896C43.802 90.7383 44.2503 90.9126 44.7649 90.9126C45.2906 90.9126 45.7416 90.7383 46.1179 90.3896C46.4942 90.0355 46.7848 89.5319 46.9895 88.8789C47.1943 88.2259 47.2966 87.4456 47.2966 86.5381V86.1396C47.2966 85.2321 47.1943 84.4518 46.9895 83.7988C46.7848 83.1403 46.4942 82.6367 46.1179 82.2881C45.7416 81.9339 45.2906 81.7568 44.7649 81.7568C44.2503 81.7568 43.802 81.9339 43.4202 82.2881C43.0439 82.6367 42.7506 83.1403 42.5403 83.7988C42.3355 84.4518 42.2332 85.2321 42.2332 86.1396ZM40.7141 86.5547V86.1313C40.7141 84.9914 40.8746 83.9953 41.1956 83.1431C41.5165 82.2853 41.9786 81.6213 42.5818 81.1509C43.1905 80.675 43.9238 80.437 44.7815 80.437C45.6393 80.437 46.367 80.675 46.9646 81.1509C47.5678 81.6213 48.0271 82.2826 48.3425 83.1348C48.658 83.9814 48.8157 84.9803 48.8157 86.1313V86.5547C48.8157 87.4124 48.7244 88.1899 48.5418 88.8872C48.3647 89.5845 48.1018 90.1849 47.7532 90.6885C47.4101 91.1865 46.9868 91.5684 46.4832 91.834C45.9796 92.0996 45.4068 92.2324 44.7649 92.2324C43.9127 92.2324 43.1822 91.9972 42.5735 91.5269C41.9703 91.0565 41.5082 90.3979 41.1873 89.5513C40.8718 88.6991 40.7141 87.7002 40.7141 86.5547ZM51.2063 89.3604H52.6673C52.7226 89.6426 52.825 89.8833 52.9744 90.0825C53.1238 90.2817 53.3064 90.445 53.5222 90.5723C53.7381 90.6995 53.9705 90.7936 54.2195 90.8545C54.4741 90.9098 54.7314 90.9375 54.9915 90.9375C55.3788 90.9375 55.7551 90.8407 56.1204 90.647C56.4911 90.4478 56.7927 90.1545 57.0252 89.7671C57.2631 89.3742 57.3821 88.8983 57.3821 88.3394C57.3821 87.8358 57.2687 87.4069 57.0418 87.0527C56.8204 86.693 56.5243 86.4163 56.1536 86.2227C55.7883 86.029 55.3927 85.9321 54.9666 85.9321C54.5792 85.9321 54.2361 85.9985 53.9373 86.1313C53.644 86.2586 53.3977 86.4191 53.1985 86.6128C52.9993 86.8009 52.8471 86.9891 52.742 87.1772H51.447L51.9534 80.6694H58.3533V81.9893H53.2483L52.9412 85.6167H53.0242C53.1072 85.495 53.2455 85.3594 53.4392 85.21C53.6384 85.055 53.893 84.9222 54.2029 84.8115C54.5128 84.7008 54.878 84.6455 55.2986 84.6455C55.9571 84.6455 56.5603 84.7922 57.1082 85.0854C57.656 85.3732 58.0932 85.7882 58.4197 86.3306C58.7517 86.8729 58.9177 87.5286 58.9177 88.2979C58.9177 89.0726 58.7462 89.756 58.4031 90.3481C58.0655 90.9403 57.5951 91.4023 56.992 91.7344C56.3943 92.0664 55.697 92.2324 54.9002 92.2324C54.38 92.2324 53.8985 92.1605 53.4558 92.0166C53.0187 91.8783 52.6368 91.679 52.3103 91.4189C51.9838 91.1589 51.7237 90.8545 51.53 90.5059C51.3419 90.1517 51.234 89.7699 51.2063 89.3604ZM69.8416 88.0239H64.6121V86.6792H69.8416V88.0239ZM84.4094 83.7656H82.8821C82.8046 83.4557 82.6884 83.1818 82.5335 82.9438C82.3785 82.7004 82.1876 82.4928 81.9607 82.3213C81.7338 82.1442 81.4737 82.0114 81.1804 81.9229C80.8871 81.8343 80.5662 81.79 80.2175 81.79C79.2768 81.79 78.5408 82.1221 78.0095 82.7861C77.4783 83.4447 77.2127 84.3605 77.2127 85.5337V87.0776C77.2127 87.8745 77.3316 88.5579 77.5696 89.1279C77.8131 89.6924 78.1617 90.1268 78.6155 90.4312C79.0693 90.73 79.6199 90.8794 80.2673 90.8794C80.8705 90.8794 81.3741 90.7743 81.7781 90.564C82.1876 90.3537 82.492 90.0659 82.6912 89.7007C82.8959 89.3299 82.9983 88.9093 82.9983 88.439V87.3765H80.1345V86.0732H84.4841V88.4058C84.4841 88.9536 84.3901 89.46 84.2019 89.9248C84.0193 90.3896 83.7481 90.7964 83.3884 91.145C83.0343 91.4881 82.5971 91.7565 82.0769 91.9502C81.5567 92.1383 80.9563 92.2324 80.2757 92.2324C79.5452 92.2324 78.895 92.1162 78.325 91.8838C77.755 91.6514 77.2735 91.3138 76.8806 90.8711C76.4877 90.4284 76.1889 89.8888 75.9841 89.2524C75.7849 88.616 75.6853 87.8911 75.6853 87.0776V85.5337C75.6853 84.4933 75.8679 83.5913 76.2332 82.8276C76.5984 82.064 77.1214 81.4746 77.802 81.0596C78.4882 80.6445 79.3045 80.437 80.2507 80.437C80.8207 80.437 81.3437 80.5173 81.8196 80.6777C82.2955 80.8382 82.7133 81.0651 83.073 81.3584C83.4382 81.6517 83.7343 82.0031 83.9612 82.4126C84.1881 82.8166 84.3375 83.2676 84.4094 83.7656ZM87.6135 92H86.0281L90.0374 80.6694H91.6228L95.6238 92H94.0134L92.9011 88.6465H88.7258L87.6135 92ZM90.8425 82.4209H90.7844L89.1243 87.4263H92.511L90.8425 82.4209ZM104.34 90.6387V92H97.6326V80.6694H99.1599V90.6387H104.34ZM113.022 90.6387V92H106.315V80.6694H107.843V90.6387H113.022ZM121.846 90.6553V92H114.998V80.6694H121.846V82.0142H116.517V85.5669H121.547V86.8784H116.517V90.6553H121.846ZM128.345 92H126.818V82.0225H123.398V80.6694H131.757V82.0225H128.345V92ZM137.576 92V80.6694H141.876C142.844 80.6694 143.613 80.9185 144.183 81.4165C144.753 81.9146 145.038 82.5952 145.038 83.4585C145.038 83.8846 144.966 84.2664 144.823 84.604C144.679 84.936 144.471 85.2155 144.2 85.4424C143.929 85.6693 143.6 85.8408 143.212 85.957V86.0234C143.716 86.0898 144.15 86.242 144.515 86.48C144.886 86.7179 145.171 87.0361 145.37 87.4346C145.575 87.8275 145.678 88.2896 145.678 88.8208C145.678 89.4849 145.517 90.0549 145.196 90.5308C144.875 91.0011 144.419 91.3636 143.826 91.6182C143.234 91.8727 142.534 92 141.726 92H137.576ZM139.095 81.981V85.5337H140.805C141.43 85.5337 141.939 85.4701 142.332 85.3428C142.731 85.21 143.024 85.0107 143.212 84.7451C143.406 84.474 143.503 84.1309 143.503 83.7158C143.503 83.168 143.337 82.7419 143.005 82.4375C142.673 82.1331 142.208 81.981 141.61 81.981H139.095ZM139.095 86.812V90.6885H141.037C142.133 90.6885 142.919 90.5418 143.395 90.2485C143.876 89.9497 144.117 89.4738 144.117 88.8208C144.117 88.3947 144.026 88.0322 143.843 87.7334C143.66 87.4346 143.392 87.2077 143.038 87.0527C142.689 86.8923 142.266 86.812 141.768 86.812H139.095ZM147.47 90.979C147.47 90.6248 147.587 90.3371 147.819 90.1157C148.052 89.8888 148.331 89.7754 148.657 89.7754C149.001 89.7754 149.288 89.8888 149.521 90.1157C149.753 90.3426 149.869 90.6304 149.869 90.979C149.869 91.311 149.753 91.5905 149.521 91.8174C149.288 92.0387 149.001 92.1494 148.657 92.1494C148.331 92.1494 148.052 92.0387 147.819 91.8174C147.587 91.5905 147.47 91.311 147.47 90.979Z" fill="white"/>
<path d="M23.0418 109.908H24.2786C24.3339 110.107 24.4474 110.301 24.6189 110.489C24.7905 110.677 25.0201 110.835 25.3079 110.962C25.5956 111.084 25.9387 111.145 26.3372 111.145C26.885 111.145 27.3499 111.021 27.7317 110.771C28.1191 110.522 28.4317 110.174 28.6697 109.726C28.9076 109.272 29.0764 108.741 29.176 108.132C29.2812 107.523 29.3255 106.859 29.3089 106.14H29.2341C29.1124 106.466 28.927 106.773 28.678 107.061C28.429 107.349 28.1108 107.578 27.7234 107.75C27.336 107.922 26.874 108.007 26.3372 108.007C25.6731 108.007 25.0672 107.858 24.5193 107.559C23.977 107.255 23.5453 106.818 23.2244 106.248C22.9034 105.678 22.7429 104.997 22.7429 104.206C22.7429 103.414 22.9117 102.736 23.2493 102.172C23.5868 101.607 24.0434 101.173 24.6189 100.869C25.2 100.564 25.853 100.412 26.5779 100.412C27.0538 100.412 27.5214 100.495 27.9807 100.661C28.4456 100.827 28.8661 101.115 29.2424 101.524C29.6243 101.934 29.9286 102.501 30.1555 103.226C30.3824 103.945 30.4959 104.867 30.4959 105.99C30.4959 107.374 30.3437 108.528 30.0393 109.452C29.7405 110.37 29.2812 111.062 28.6614 111.527C28.0471 111.986 27.2613 112.216 26.304 112.216C25.8225 112.216 25.3854 112.155 24.9924 112.033C24.6051 111.911 24.273 111.745 23.9964 111.535C23.7197 111.319 23.5011 111.073 23.3406 110.796C23.1801 110.514 23.0805 110.218 23.0418 109.908ZM29.0764 104.313C29.0764 103.716 28.963 103.209 28.7361 102.794C28.5092 102.374 28.2021 102.053 27.8147 101.832C27.4273 101.605 26.9846 101.491 26.4866 101.491C26.0273 101.491 25.6039 101.602 25.2166 101.823C24.8347 102.045 24.5276 102.36 24.2952 102.77C24.0683 103.174 23.9548 103.663 23.9548 104.239C23.9548 104.842 24.0738 105.343 24.3118 105.741C24.5553 106.14 24.8707 106.436 25.2581 106.629C25.651 106.823 26.0715 106.92 26.5198 106.92C26.957 106.92 27.3692 106.823 27.7566 106.629C28.1495 106.436 28.4677 106.148 28.7112 105.766C28.9547 105.379 29.0764 104.895 29.0764 104.313ZM33.2102 112V100.072H34.4055V104.928H34.4719C34.5328 104.712 34.6629 104.468 34.8621 104.197C35.0613 103.921 35.3491 103.68 35.7254 103.475C36.1072 103.27 36.6025 103.168 37.2112 103.168C38.0523 103.168 38.7524 103.411 39.3113 103.898C39.8702 104.38 40.1497 105.108 40.1497 106.082V112H38.9461V106.463C38.9461 105.993 38.8631 105.592 38.697 105.26C38.531 104.928 38.2931 104.676 37.9832 104.504C37.6733 104.327 37.2997 104.239 36.8626 104.239C36.3202 104.239 35.8665 104.369 35.5012 104.629C35.136 104.883 34.8621 105.229 34.6795 105.667C34.4968 106.098 34.4055 106.577 34.4055 107.103V112H33.2102ZM43.9846 106.131V106.555C43.9846 107.518 44.0981 108.342 44.325 109.028C44.5574 109.715 44.8784 110.243 45.2879 110.614C45.7029 110.979 46.1843 111.162 46.7322 111.162C47.2856 111.162 47.767 110.979 48.1765 110.614C48.586 110.243 48.9042 109.715 49.1311 109.028C49.358 108.342 49.4715 107.518 49.4715 106.555V106.131C49.4715 105.174 49.358 104.352 49.1311 103.666C48.9042 102.974 48.586 102.443 48.1765 102.072C47.767 101.696 47.2856 101.508 46.7322 101.508C46.1843 101.508 45.7029 101.696 45.2879 102.072C44.8784 102.443 44.5574 102.974 44.325 103.666C44.0981 104.352 43.9846 105.174 43.9846 106.131ZM42.7893 106.571V106.131C42.7893 104.98 42.9443 103.979 43.2542 103.126C43.5696 102.269 44.0206 101.605 44.6072 101.134C45.1993 100.664 45.9104 100.429 46.7405 100.429C47.5706 100.429 48.2789 100.664 48.8655 101.134C49.4521 101.605 49.9003 102.266 50.2102 103.118C50.5201 103.97 50.6751 104.975 50.6751 106.131V106.571C50.6751 107.429 50.5865 108.209 50.4094 108.912C50.2324 109.609 49.975 110.207 49.6375 110.705C49.2999 111.198 48.8876 111.577 48.4007 111.842C47.9137 112.108 47.3575 112.241 46.7322 112.241C45.9076 112.241 45.1993 112.008 44.6072 111.543C44.0151 111.073 43.5641 110.415 43.2542 109.568C42.9443 108.721 42.7893 107.722 42.7893 106.571ZM54.1946 106.131V106.555C54.1946 107.518 54.308 108.342 54.5349 109.028C54.7673 109.715 55.0883 110.243 55.4978 110.614C55.9129 110.979 56.3943 111.162 56.9422 111.162C57.4955 111.162 57.977 110.979 58.3865 110.614C58.796 110.243 59.1142 109.715 59.3411 109.028C59.568 108.342 59.6814 107.518 59.6814 106.555V106.131C59.6814 105.174 59.568 104.352 59.3411 103.666C59.1142 102.974 58.796 102.443 58.3865 102.072C57.977 101.696 57.4955 101.508 56.9422 101.508C56.3943 101.508 55.9129 101.696 55.4978 102.072C55.0883 102.443 54.7673 102.974 54.5349 103.666C54.308 104.352 54.1946 105.174 54.1946 106.131ZM52.9993 106.571V106.131C52.9993 104.98 53.1542 103.979 53.4641 103.126C53.7796 102.269 54.2306 101.605 54.8172 101.134C55.4093 100.664 56.1204 100.429 56.9505 100.429C57.7805 100.429 58.4889 100.664 59.0755 101.134C59.662 101.605 60.1103 102.266 60.4202 103.118C60.7301 103.97 60.885 104.975 60.885 106.131V106.571C60.885 107.429 60.7965 108.209 60.6194 108.912C60.4423 109.609 60.185 110.207 59.8474 110.705C59.5099 111.198 59.0976 111.577 58.6106 111.842C58.1236 112.108 57.5675 112.241 56.9422 112.241C56.1176 112.241 55.4093 112.008 54.8172 111.543C54.225 111.073 53.774 110.415 53.4641 109.568C53.1542 108.721 52.9993 107.722 52.9993 106.571ZM71.9915 107.883H66.762V106.812H71.9915V107.883ZM81.9524 112H80.7571V102.047H80.6907C80.3974 102.258 80.1041 102.471 79.8108 102.687C79.5175 102.897 79.2215 103.107 78.9226 103.317C78.6293 103.528 78.3333 103.741 78.0344 103.957V102.678C78.4882 102.346 78.942 102.014 79.3958 101.682C79.8495 101.345 80.3033 101.01 80.7571 100.678H81.9524V112ZM86.6008 106.131V106.555C86.6008 107.518 86.7143 108.342 86.9412 109.028C87.1736 109.715 87.4946 110.243 87.9041 110.614C88.3191 110.979 88.8006 111.162 89.3484 111.162C89.9018 111.162 90.3832 110.979 90.7927 110.614C91.2022 110.243 91.5204 109.715 91.7473 109.028C91.9742 108.342 92.0877 107.518 92.0877 106.555V106.131C92.0877 105.174 91.9742 104.352 91.7473 103.666C91.5204 102.974 91.2022 102.443 90.7927 102.072C90.3832 101.696 89.9018 101.508 89.3484 101.508C88.8006 101.508 88.3191 101.696 87.9041 102.072C87.4946 102.443 87.1736 102.974 86.9412 103.666C86.7143 104.352 86.6008 105.174 86.6008 106.131ZM85.4055 106.571V106.131C85.4055 104.98 85.5605 103.979 85.8704 103.126C86.1858 102.269 86.6368 101.605 87.2234 101.134C87.8155 100.664 88.5266 100.429 89.3567 100.429C90.1868 100.429 90.8951 100.664 91.4817 101.134C92.0683 101.605 92.5165 102.266 92.8264 103.118C93.1363 103.97 93.2913 104.975 93.2913 106.131V106.571C93.2913 107.429 93.2027 108.209 93.0257 108.912C92.8486 109.609 92.5912 110.207 92.2537 110.705C91.9161 111.198 91.5038 111.577 91.0169 111.842C90.5299 112.108 89.9737 112.241 89.3484 112.241C88.5239 112.241 87.8155 112.008 87.2234 111.543C86.6313 111.073 86.1803 110.415 85.8704 109.568C85.5605 108.721 85.4055 107.722 85.4055 106.571ZM96.0139 112V100.072H97.2092V104.928H97.2757C97.3365 104.712 97.4666 104.468 97.6658 104.197C97.865 103.921 98.1528 103.68 98.5291 103.475C98.9109 103.27 99.4062 103.168 100.015 103.168C100.856 103.168 101.556 103.411 102.115 103.898C102.674 104.38 102.953 105.108 102.953 106.082V112H101.75V106.463C101.75 105.993 101.667 105.592 101.501 105.26C101.335 104.928 101.097 104.676 100.787 104.504C100.477 104.327 100.103 104.239 99.6663 104.239C99.124 104.239 98.6702 104.369 98.3049 104.629C97.9397 104.883 97.6658 105.229 97.4832 105.667C97.3006 106.098 97.2092 106.577 97.2092 107.103V112H96.0139ZM106.788 106.131V106.555C106.788 107.518 106.902 108.342 107.129 109.028C107.361 109.715 107.682 110.243 108.092 110.614C108.507 110.979 108.988 111.162 109.536 111.162C110.089 111.162 110.571 110.979 110.98 110.614C111.39 110.243 111.708 109.715 111.935 109.028C112.162 108.342 112.275 107.518 112.275 106.555V106.131C112.275 105.174 112.162 104.352 111.935 103.666C111.708 102.974 111.39 102.443 110.98 102.072C110.571 101.696 110.089 101.508 109.536 101.508C108.988 101.508 108.507 101.696 108.092 102.072C107.682 102.443 107.361 102.974 107.129 103.666C106.902 104.352 106.788 105.174 106.788 106.131ZM105.593 106.571V106.131C105.593 104.98 105.748 103.979 106.058 103.126C106.373 102.269 106.824 101.605 107.411 101.134C108.003 100.664 108.714 100.429 109.544 100.429C110.374 100.429 111.083 100.664 111.669 101.134C112.256 101.605 112.704 102.266 113.014 103.118C113.324 103.97 113.479 104.975 113.479 106.131V106.571C113.479 107.429 113.39 108.209 113.213 108.912C113.036 109.609 112.779 110.207 112.441 110.705C112.104 111.198 111.691 111.577 111.204 111.842C110.717 112.108 110.161 112.241 109.536 112.241C108.711 112.241 108.003 112.008 107.411 111.543C106.819 111.073 106.368 110.415 106.058 109.568C105.748 108.721 105.593 107.722 105.593 106.571ZM116.998 106.131V106.555C116.998 107.518 117.112 108.342 117.339 109.028C117.571 109.715 117.892 110.243 118.302 110.614C118.717 110.979 119.198 111.162 119.746 111.162C120.299 111.162 120.781 110.979 121.19 110.614C121.6 110.243 121.918 109.715 122.145 109.028C122.372 108.342 122.485 107.518 122.485 106.555V106.131C122.485 105.174 122.372 104.352 122.145 103.666C121.918 102.974 121.6 102.443 121.19 102.072C120.781 101.696 120.299 101.508 119.746 101.508C119.198 101.508 118.717 101.696 118.302 102.072C117.892 102.443 117.571 102.974 117.339 103.666C117.112 104.352 116.998 105.174 116.998 106.131ZM115.803 106.571V106.131C115.803 104.98 115.958 103.979 116.268 103.126C116.583 102.269 117.034 101.605 117.621 101.134C118.213 100.664 118.924 100.429 119.754 100.429C120.584 100.429 121.293 100.664 121.879 101.134C122.466 101.605 122.914 102.266 123.224 103.118C123.534 103.97 123.689 104.975 123.689 106.131V106.571C123.689 107.429 123.6 108.209 123.423 108.912C123.246 109.609 122.989 110.207 122.651 110.705C122.314 111.198 121.901 111.577 121.414 111.842C120.927 112.108 120.371 112.241 119.746 112.241C118.921 112.241 118.213 112.008 117.621 111.543C117.029 111.073 116.578 110.415 116.268 109.568C115.958 108.721 115.803 107.722 115.803 106.571Z" fill="white"/>
<rect x="12" y="121" width="4.67213" height="60" rx="2.33607" fill="#565EA3"/>
<path d="M32.6292 137H29.8982V132.36H25.7229V137H22.992V125.669H25.7229V130.152H29.8982V125.669H32.6292V137ZM35.3352 137V128.135H37.9832V137H35.3352ZM35.0779 125.603C35.0779 125.199 35.2218 124.875 35.5095 124.632C35.7973 124.388 36.1791 124.267 36.655 124.267C37.1254 124.267 37.5045 124.388 37.7923 124.632C38.0855 124.875 38.2322 125.199 38.2322 125.603C38.2322 126.001 38.0883 126.322 37.8006 126.566C37.5128 126.804 37.131 126.923 36.655 126.923C36.1847 126.923 35.8028 126.804 35.5095 126.566C35.2218 126.322 35.0779 126.001 35.0779 125.603ZM40.1995 130.799C40.1995 130.119 40.371 129.574 40.7141 129.164C41.0628 128.749 41.5193 128.447 42.0838 128.259C42.6537 128.071 43.268 127.977 43.9265 127.977C44.6072 127.977 45.2132 128.077 45.7444 128.276C46.2757 128.475 46.6907 128.774 46.9895 129.172C47.2939 129.565 47.4461 130.055 47.4461 130.642H45.1384C45.1218 130.481 45.0637 130.332 44.9641 130.193C44.8701 130.049 44.7345 129.933 44.5574 129.845C44.3803 129.751 44.1562 129.704 43.885 129.704C43.5032 129.704 43.2099 129.787 43.0051 129.953C42.8004 130.119 42.698 130.334 42.698 130.6C42.698 130.805 42.7755 130.971 42.9304 131.098C43.0854 131.22 43.2818 131.319 43.5198 131.397C43.7633 131.469 44.0206 131.527 44.2918 131.571C44.5629 131.61 44.8147 131.646 45.0471 131.679C45.5895 131.768 46.0626 131.912 46.4666 132.111C46.8705 132.305 47.1832 132.57 47.4046 132.908C47.6314 133.245 47.7449 133.677 47.7449 134.203C47.7449 134.817 47.5899 135.345 47.28 135.788C46.9701 136.231 46.5191 136.571 45.927 136.809C45.3404 137.047 44.6238 137.166 43.7771 137.166C42.9636 137.166 42.2774 137.053 41.7185 136.826C41.1596 136.593 40.7335 136.275 40.4402 135.871C40.1524 135.467 40.0086 135.002 40.0086 134.477H42.5735C42.5956 134.659 42.6593 134.822 42.7644 134.966C42.8696 135.11 43.0162 135.224 43.2044 135.307C43.398 135.384 43.6305 135.423 43.9016 135.423C44.206 135.423 44.4522 135.384 44.6404 135.307C44.8285 135.224 44.9669 135.113 45.0554 134.975C45.144 134.831 45.1882 134.676 45.1882 134.51C45.1882 134.255 45.0831 134.067 44.8728 133.945C44.6625 133.818 44.3914 133.724 44.0593 133.663C43.7273 133.597 43.3759 133.528 43.0051 133.456C42.4905 133.356 42.0201 133.209 41.594 133.016C41.1679 132.822 40.8276 132.548 40.573 132.194C40.324 131.84 40.1995 131.375 40.1995 130.799ZM50.343 128.268V126.076H52.8997V128.268H54.8421V130.251H52.8997V134.012C52.8997 134.405 52.9965 134.679 53.1902 134.833C53.3894 134.983 53.691 135.058 54.095 135.058C54.2555 135.058 54.4076 135.055 54.5515 135.049C54.7009 135.038 54.8144 135.03 54.8919 135.024V136.925C54.7923 136.942 54.6041 136.964 54.3274 136.992C54.0562 137.019 53.7657 137.033 53.4558 137.033C52.7032 137.033 52.0917 136.95 51.6214 136.784C51.1565 136.613 50.8162 136.339 50.6004 135.962C50.3901 135.586 50.2849 135.091 50.2849 134.477V130.251H48.9319V128.268H50.343ZM60.5945 127.977C61.4522 127.977 62.1938 128.149 62.8191 128.492C63.45 128.829 63.9369 129.313 64.28 129.944C64.6231 130.57 64.7947 131.303 64.7947 132.144V132.924C64.7947 133.826 64.6231 134.596 64.28 135.232C63.9369 135.863 63.45 136.344 62.8191 136.676C62.1938 137.003 61.4522 137.166 60.5945 137.166C59.7312 137.166 58.9841 137.003 58.3533 136.676C57.7224 136.344 57.2354 135.863 56.8923 135.232C56.5548 134.601 56.386 133.835 56.386 132.933V132.161C56.386 131.331 56.5576 130.603 56.9007 129.978C57.2437 129.347 57.7307 128.857 58.3616 128.508C58.9924 128.154 59.7368 127.977 60.5945 127.977ZM60.5945 129.953C60.2293 129.953 59.9332 130.058 59.7063 130.268C59.485 130.473 59.3217 130.744 59.2166 131.082C59.1114 131.414 59.0589 131.771 59.0589 132.152V132.974C59.0589 133.345 59.1087 133.699 59.2083 134.037C59.3079 134.374 59.4684 134.651 59.6897 134.867C59.9166 135.077 60.2182 135.182 60.5945 135.182C60.9708 135.182 61.2696 135.077 61.491 134.867C61.7123 134.651 61.8701 134.377 61.9641 134.045C62.0637 133.707 62.1135 133.35 62.1135 132.974V132.152C62.1135 131.765 62.061 131.405 61.9558 131.073C61.8562 130.736 61.6957 130.465 61.4744 130.26C61.253 130.055 60.9597 129.953 60.5945 129.953ZM66.8948 137V128.135H69.5427V137H66.8948ZM66.6375 125.603C66.6375 125.199 66.7813 124.875 67.0691 124.632C67.3569 124.388 67.7387 124.267 68.2146 124.267C68.685 124.267 69.0641 124.388 69.3518 124.632C69.6451 124.875 69.7918 125.199 69.7918 125.603C69.7918 126.001 69.6479 126.322 69.3601 126.566C69.0724 126.804 68.6905 126.923 68.2146 126.923C67.7442 126.923 67.3624 126.804 67.0691 126.566C66.7813 126.322 66.6375 126.001 66.6375 125.603ZM72.0994 137V128.135H74.7473V129.538H74.8718C74.9272 129.333 75.0379 129.114 75.2039 128.882C75.3699 128.644 75.5995 128.439 75.8928 128.268C76.1861 128.096 76.5458 128.01 76.9719 128.01C77.1601 128.01 77.3178 128.016 77.4451 128.027C77.5724 128.038 77.6803 128.057 77.7688 128.085V130.334C77.6747 130.301 77.5392 130.276 77.3621 130.26C77.185 130.238 76.9968 130.227 76.7976 130.227C76.3438 130.227 75.9703 130.31 75.677 130.476C75.3837 130.636 75.1679 130.866 75.0296 131.165C74.8912 131.458 74.822 131.801 74.822 132.194V137H72.0994ZM83.0564 137.166C82.2208 137.166 81.4848 137.011 80.8484 136.701C80.2175 136.386 79.725 135.918 79.3709 135.298C79.0222 134.673 78.8479 133.901 78.8479 132.982V132.136C78.8479 131.212 79.0305 130.442 79.3958 129.828C79.7665 129.208 80.2618 128.746 80.8816 128.442C81.5014 128.132 82.1876 127.977 82.9402 127.977C83.7426 127.977 84.4482 128.143 85.0569 128.475C85.6656 128.807 86.1415 129.286 86.4846 129.911C86.8277 130.531 86.9993 131.272 86.9993 132.136V133.115H81.4212V133.522C81.4212 134.031 81.5733 134.441 81.8777 134.75C82.1876 135.055 82.5777 135.207 83.0481 135.207C83.3137 135.207 83.5517 135.168 83.762 135.091C83.9778 135.008 84.1521 134.894 84.2849 134.75C84.4177 134.607 84.4952 134.443 84.5173 134.261H86.9412C86.9246 134.56 86.8388 134.878 86.6839 135.215C86.5344 135.553 86.3048 135.871 85.9949 136.17C85.685 136.463 85.2866 136.704 84.7996 136.892C84.3181 137.075 83.7371 137.166 83.0564 137.166ZM81.4212 131.629H84.4675C84.4675 131.618 84.4675 131.61 84.4675 131.604C84.4675 131.593 84.4675 131.582 84.4675 131.571C84.4675 131.234 84.4039 130.938 84.2766 130.683C84.1549 130.429 83.9806 130.229 83.7537 130.085C83.5268 129.942 83.2612 129.87 82.9568 129.87C82.6524 129.87 82.384 129.942 82.1516 130.085C81.9247 130.229 81.7449 130.429 81.6121 130.683C81.4848 130.938 81.4212 131.234 81.4212 131.571C81.4212 131.582 81.4212 131.593 81.4212 131.604C81.4212 131.61 81.4212 131.618 81.4212 131.629ZM97.616 133.522H92.3865V131.181H97.616V133.522ZM112.748 129.264H110.092C110.053 129.042 109.981 128.838 109.876 128.649C109.771 128.461 109.633 128.295 109.461 128.151C109.29 128.007 109.088 127.897 108.855 127.819C108.628 127.742 108.371 127.703 108.083 127.703C107.358 127.703 106.802 127.96 106.415 128.475C106.027 128.984 105.834 129.706 105.834 130.642V131.97C105.834 132.54 105.908 133.052 106.058 133.505C106.213 133.959 106.459 134.319 106.797 134.584C107.14 134.845 107.591 134.975 108.15 134.975C108.609 134.975 108.991 134.892 109.295 134.726C109.6 134.56 109.826 134.341 109.976 134.07C110.125 133.799 110.2 133.505 110.2 133.19V132.692H108.224V130.774H112.773V132.982C112.773 133.536 112.682 134.067 112.499 134.576C112.317 135.08 112.034 135.531 111.653 135.929C111.276 136.322 110.792 136.635 110.2 136.867C109.613 137.094 108.913 137.208 108.1 137.208C107.231 137.208 106.481 137.075 105.85 136.809C105.219 136.543 104.699 136.175 104.29 135.705C103.88 135.229 103.576 134.676 103.377 134.045C103.183 133.409 103.086 132.72 103.086 131.978V130.617C103.086 129.604 103.28 128.713 103.667 127.944C104.055 127.169 104.622 126.563 105.369 126.126C106.116 125.689 107.029 125.47 108.108 125.47C108.85 125.47 109.503 125.573 110.067 125.777C110.632 125.982 111.108 126.264 111.495 126.624C111.882 126.978 112.178 127.382 112.383 127.836C112.593 128.29 112.715 128.766 112.748 129.264ZM118.816 137.166C117.981 137.166 117.245 137.011 116.608 136.701C115.977 136.386 115.485 135.918 115.131 135.298C114.782 134.673 114.608 133.901 114.608 132.982V132.136C114.608 131.212 114.79 130.442 115.156 129.828C115.526 129.208 116.022 128.746 116.641 128.442C117.261 128.132 117.947 127.977 118.7 127.977C119.502 127.977 120.208 128.143 120.817 128.475C121.425 128.807 121.901 129.286 122.244 129.911C122.587 130.531 122.759 131.272 122.759 132.136V133.115H117.181V133.522C117.181 134.031 117.333 134.441 117.637 134.75C117.947 135.055 118.337 135.207 118.808 135.207C119.074 135.207 119.311 135.168 119.522 135.091C119.738 135.008 119.912 134.894 120.045 134.75C120.178 134.607 120.255 134.443 120.277 134.261H122.701C122.684 134.56 122.599 134.878 122.444 135.215C122.294 135.553 122.065 135.871 121.755 136.17C121.445 136.463 121.046 136.704 120.559 136.892C120.078 137.075 119.497 137.166 118.816 137.166ZM117.181 131.629H120.227C120.227 131.618 120.227 131.61 120.227 131.604C120.227 131.593 120.227 131.582 120.227 131.571C120.227 131.234 120.164 130.938 120.036 130.683C119.915 130.429 119.74 130.229 119.513 130.085C119.287 129.942 119.021 129.87 118.717 129.87C118.412 129.87 118.144 129.942 117.911 130.085C117.685 130.229 117.505 130.429 117.372 130.683C117.245 130.938 117.181 131.234 117.181 131.571C117.181 131.582 117.181 131.593 117.181 131.604C117.181 131.61 117.181 131.618 117.181 131.629ZM117.604 126.749L119.572 123.818H121.846L119.513 126.749H117.604ZM128.545 127.977C129.402 127.977 130.144 128.149 130.769 128.492C131.4 128.829 131.887 129.313 132.23 129.944C132.573 130.57 132.745 131.303 132.745 132.144V132.924C132.745 133.826 132.573 134.596 132.23 135.232C131.887 135.863 131.4 136.344 130.769 136.676C130.144 137.003 129.402 137.166 128.545 137.166C127.681 137.166 126.934 137.003 126.303 136.676C125.673 136.344 125.186 135.863 124.843 135.232C124.505 134.601 124.336 133.835 124.336 132.933V132.161C124.336 131.331 124.508 130.603 124.851 129.978C125.194 129.347 125.681 128.857 126.312 128.508C126.943 128.154 127.687 127.977 128.545 127.977ZM128.545 129.953C128.179 129.953 127.883 130.058 127.657 130.268C127.435 130.473 127.272 130.744 127.167 131.082C127.062 131.414 127.009 131.771 127.009 132.152V132.974C127.009 133.345 127.059 133.699 127.158 134.037C127.258 134.374 127.419 134.651 127.64 134.867C127.867 135.077 128.168 135.182 128.545 135.182C128.921 135.182 129.22 135.077 129.441 134.867C129.663 134.651 129.82 134.377 129.914 134.045C130.014 133.707 130.064 133.35 130.064 132.974V132.152C130.064 131.765 130.011 131.405 129.906 131.073C129.806 130.736 129.646 130.465 129.425 130.26C129.203 130.055 128.91 129.953 128.545 129.953Z" fill="white"/>
<path d="M23.241 157V145.669H27.5408C28.5092 145.669 29.2784 145.918 29.8484 146.417C30.4184 146.915 30.7034 147.595 30.7034 148.458C30.7034 148.885 30.6314 149.266 30.4876 149.604C30.3437 149.936 30.1362 150.215 29.865 150.442C29.5938 150.669 29.2646 150.841 28.8772 150.957V151.023C29.3808 151.09 29.8152 151.242 30.1804 151.48C30.5512 151.718 30.8362 152.036 31.0354 152.435C31.2402 152.827 31.3425 153.29 31.3425 153.821C31.3425 154.485 31.1821 155.055 30.8611 155.531C30.5401 156.001 30.0836 156.364 29.4915 156.618C28.8993 156.873 28.1993 157 27.3914 157H23.241ZM24.76 146.981V150.534H26.47C27.0953 150.534 27.6044 150.47 27.9973 150.343C28.3958 150.21 28.6891 150.011 28.8772 149.745C29.0709 149.474 29.1677 149.131 29.1677 148.716C29.1677 148.168 29.0017 147.742 28.6697 147.438C28.3377 147.133 27.8728 146.981 27.2752 146.981H24.76ZM24.76 151.812V155.688H26.7024C27.7981 155.688 28.5839 155.542 29.0598 155.249C29.5413 154.95 29.782 154.474 29.782 153.821C29.782 153.395 29.6907 153.032 29.5081 152.733C29.3255 152.435 29.0571 152.208 28.7029 152.053C28.3543 151.892 27.9309 151.812 27.4329 151.812H24.76ZM34.9866 148.824H33.5007V148.766C33.5007 148.334 33.5782 147.919 33.7332 147.521C33.8881 147.122 34.1178 146.768 34.4221 146.458C34.7265 146.143 35.1028 145.894 35.551 145.711C35.9993 145.528 36.5167 145.437 37.1033 145.437C37.8227 145.437 38.448 145.573 38.9793 145.844C39.5105 146.109 39.92 146.477 40.2078 146.948C40.5011 147.418 40.6477 147.949 40.6477 148.542C40.6477 149.012 40.5592 149.444 40.3821 149.836C40.2105 150.224 39.9781 150.603 39.6848 150.974C39.3971 151.339 39.0761 151.723 38.7219 152.127L35.7088 155.581V155.672H40.8635V157H33.5423V156.037L37.8089 151.181C38.0136 150.943 38.2156 150.697 38.4148 150.442C38.614 150.182 38.7773 149.906 38.9046 149.612C39.0374 149.319 39.1038 148.998 39.1038 148.649C39.1038 148.262 39.0152 147.924 38.8382 147.637C38.6611 147.349 38.4176 147.128 38.1077 146.973C37.8033 146.818 37.4575 146.74 37.0701 146.74C36.6329 146.74 36.2566 146.834 35.9412 147.022C35.6313 147.211 35.3933 147.46 35.2273 147.77C35.0668 148.074 34.9866 148.406 34.9866 148.766C34.9866 148.771 34.9866 148.782 34.9866 148.799C34.9866 148.81 34.9866 148.818 34.9866 148.824ZM44.491 151.14V151.538C44.491 152.446 44.5934 153.226 44.7981 153.879C45.0084 154.532 45.3017 155.035 45.678 155.39C46.0598 155.738 46.5081 155.913 47.0227 155.913C47.5484 155.913 47.9994 155.738 48.3757 155.39C48.752 155.035 49.0426 154.532 49.2473 153.879C49.4521 153.226 49.5545 152.446 49.5545 151.538V151.14C49.5545 150.232 49.4521 149.452 49.2473 148.799C49.0426 148.14 48.752 147.637 48.3757 147.288C47.9994 146.934 47.5484 146.757 47.0227 146.757C46.5081 146.757 46.0598 146.934 45.678 147.288C45.3017 147.637 45.0084 148.14 44.7981 148.799C44.5934 149.452 44.491 150.232 44.491 151.14ZM42.9719 151.555V151.131C42.9719 149.991 43.1324 148.995 43.4534 148.143C43.7743 147.285 44.2364 146.621 44.8396 146.151C45.4483 145.675 46.1816 145.437 47.0393 145.437C47.8971 145.437 48.6248 145.675 49.2224 146.151C49.8256 146.621 50.2849 147.283 50.6004 148.135C50.9158 148.981 51.0735 149.98 51.0735 151.131V151.555C51.0735 152.412 50.9822 153.19 50.7996 153.887C50.6225 154.584 50.3596 155.185 50.011 155.688C49.6679 156.187 49.2446 156.568 48.741 156.834C48.2374 157.1 47.6646 157.232 47.0227 157.232C46.1705 157.232 45.44 156.997 44.8313 156.527C44.2281 156.056 43.766 155.398 43.4451 154.551C43.1297 153.699 42.9719 152.7 42.9719 151.555ZM61.1008 148.019H59.5735C59.5348 147.841 59.4379 147.656 59.283 147.462C59.128 147.269 58.9094 147.103 58.6272 146.964C58.345 146.826 57.9908 146.757 57.5647 146.757C57.2493 146.757 56.9532 146.818 56.6765 146.939C56.3998 147.056 56.148 147.238 55.9212 147.487C55.6998 147.731 55.5061 148.038 55.3401 148.409C55.1741 148.774 55.0468 149.208 54.9583 149.712C54.8697 150.21 54.8255 150.774 54.8255 151.405C54.8255 151.405 54.8393 151.405 54.867 151.405C54.8946 151.405 54.9085 151.405 54.9085 151.405C55.0191 151.14 55.1935 150.877 55.4314 150.617C55.6694 150.357 55.9848 150.141 56.3777 149.969C56.7706 149.792 57.241 149.704 57.7888 149.704C58.381 149.704 58.9454 149.842 59.4822 150.119C60.0245 150.395 60.47 150.802 60.8186 151.339C61.1673 151.876 61.3416 152.537 61.3416 153.323C61.3416 154.153 61.17 154.861 60.8269 155.448C60.4894 156.029 60.0245 156.472 59.4324 156.776C58.8458 157.08 58.179 157.232 57.4319 157.232C57.0224 157.232 56.6184 157.18 56.22 157.075C55.8215 156.97 55.4452 156.792 55.0911 156.543C54.7424 156.289 54.4353 155.949 54.1697 155.522C53.9096 155.102 53.7048 154.587 53.5554 153.979C53.406 153.364 53.3313 152.631 53.3313 151.779C53.3313 150.904 53.3977 150.124 53.5305 149.438C53.6689 148.752 53.8626 148.16 54.1116 147.662C54.3661 147.158 54.6677 146.746 55.0164 146.425C55.3705 146.098 55.7662 145.855 56.2034 145.694C56.6406 145.534 57.1109 145.454 57.6145 145.454C58.1458 145.454 58.6217 145.528 59.0423 145.678C59.4684 145.827 59.8281 146.026 60.1214 146.275C60.4202 146.519 60.6526 146.793 60.8186 147.097C60.9846 147.396 61.0787 147.703 61.1008 148.019ZM55.033 153.397C55.033 153.934 55.1437 154.391 55.365 154.767C55.5864 155.143 55.8797 155.431 56.2449 155.63C56.6101 155.83 57.0086 155.929 57.4402 155.929C57.8829 155.929 58.2841 155.841 58.6438 155.664C59.009 155.481 59.2996 155.204 59.5154 154.833C59.7312 154.457 59.8391 153.984 59.8391 153.414C59.8391 152.861 59.7229 152.404 59.4905 152.044C59.2581 151.685 58.962 151.419 58.6023 151.248C58.2426 151.07 57.858 150.982 57.4485 150.982C56.9837 150.982 56.5686 151.087 56.2034 151.297C55.8382 151.502 55.5504 151.787 55.3401 152.152C55.1354 152.512 55.033 152.927 55.033 153.397ZM72.3484 153.024H67.1189V151.679H72.3484V153.024ZM80.0598 157H78.6736V145.669H80.176L83.8699 154.352H83.9197L87.6052 145.669H89.0994V157H87.7132V148.766H87.6301L84.509 156.004H83.2639L80.1345 148.766H80.0598V157ZM99.4339 150.509C99.4339 149.673 99.2983 148.981 99.0271 148.434C98.7615 147.886 98.4018 147.476 97.948 147.205C97.4942 146.928 96.9796 146.79 96.4041 146.79C95.8285 146.79 95.3111 146.928 94.8518 147.205C94.398 147.476 94.0383 147.886 93.7727 148.434C93.5071 148.981 93.3743 149.673 93.3743 150.509V152.161C93.3743 152.991 93.5071 153.682 93.7727 154.236C94.0383 154.789 94.398 155.201 94.8518 155.473C95.3111 155.744 95.8285 155.879 96.4041 155.879C96.9796 155.879 97.4942 155.744 97.948 155.473C98.4018 155.201 98.7615 154.789 99.0271 154.236C99.2983 153.682 99.4339 152.991 99.4339 152.161V150.509ZM100.969 152.161C100.969 153.229 100.781 154.142 100.405 154.9C100.029 155.658 99.4975 156.236 98.8113 156.635C98.1306 157.033 97.3282 157.232 96.4041 157.232C95.4744 157.232 94.6664 157.033 93.9802 156.635C93.2996 156.236 92.7711 155.658 92.3948 154.9C92.024 154.142 91.8386 153.229 91.8386 152.161V150.517C91.8386 149.444 92.024 148.528 92.3948 147.77C92.7711 147.011 93.2996 146.433 93.9802 146.035C94.6664 145.636 95.4744 145.437 96.4041 145.437C97.3282 145.437 98.1306 145.636 98.8113 146.035C99.4975 146.433 100.029 147.011 100.405 147.77C100.781 148.528 100.969 149.444 100.969 150.517V152.161ZM107.793 145.669C108.551 145.669 109.204 145.811 109.752 146.093C110.3 146.369 110.723 146.762 111.022 147.271C111.321 147.781 111.47 148.378 111.47 149.064C111.47 149.585 111.381 150.055 111.204 150.476C111.027 150.891 110.781 151.248 110.466 151.546C110.15 151.845 109.782 152.072 109.362 152.227L111.669 157H109.934L107.851 152.518H105.178V157H103.659V145.669H107.793ZM105.178 151.206H107.535C108.299 151.206 108.883 151.032 109.287 150.683C109.691 150.334 109.893 149.823 109.893 149.147C109.893 148.461 109.688 147.933 109.279 147.562C108.875 147.186 108.313 146.998 107.594 146.998H105.178V151.206ZM121.066 155.655V157H114.218V145.669H121.066V147.014H115.737V150.567H120.767V151.878H115.737V155.655H121.066ZM124.237 157H122.651L126.66 145.669H128.246L132.247 157H130.636L129.524 153.646H125.349L124.237 157ZM127.466 147.421H127.407L125.747 152.426H129.134L127.466 147.421ZM138.448 155.871C139.3 155.871 139.978 155.619 140.481 155.116C140.985 154.607 141.237 153.915 141.237 153.041V145.669H142.772V153.09C142.772 153.915 142.592 154.64 142.233 155.265C141.873 155.89 141.369 156.375 140.722 156.718C140.074 157.061 139.316 157.232 138.448 157.232C137.579 157.232 136.821 157.061 136.173 156.718C135.526 156.375 135.022 155.89 134.662 155.265C134.303 154.64 134.123 153.915 134.123 153.09V145.669H135.65V153.041C135.65 153.915 135.902 154.607 136.406 155.116C136.915 155.619 137.595 155.871 138.448 155.871ZM150.716 150.567V152.169C150.716 152.955 150.832 153.624 151.065 154.178C151.297 154.731 151.635 155.154 152.077 155.448C152.52 155.736 153.057 155.879 153.688 155.879C154.175 155.879 154.606 155.794 154.983 155.622C155.359 155.451 155.663 155.213 155.896 154.908C156.134 154.598 156.278 154.244 156.327 153.846H157.838C157.838 153.857 157.838 153.868 157.838 153.879C157.838 153.884 157.838 153.89 157.838 153.896C157.783 154.537 157.567 155.11 157.191 155.614C156.82 156.117 156.33 156.513 155.721 156.801C155.118 157.089 154.438 157.232 153.679 157.232C152.722 157.232 151.906 157.036 151.231 156.643C150.561 156.245 150.052 155.669 149.703 154.917C149.355 154.164 149.18 153.254 149.18 152.186V150.55C149.18 149.482 149.358 148.566 149.712 147.803C150.066 147.039 150.581 146.455 151.256 146.051C151.931 145.642 152.739 145.437 153.679 145.437C154.249 145.437 154.778 145.523 155.265 145.694C155.752 145.866 156.181 146.109 156.552 146.425C156.922 146.74 157.218 147.111 157.44 147.537C157.667 147.963 157.799 148.434 157.838 148.948C157.838 148.954 157.838 148.962 157.838 148.973C157.838 148.979 157.838 148.987 157.838 148.998H156.327C156.278 148.566 156.134 148.187 155.896 147.861C155.658 147.529 155.348 147.269 154.966 147.081C154.59 146.887 154.164 146.79 153.688 146.79C153.068 146.79 152.537 146.942 152.094 147.247C151.651 147.545 151.311 147.977 151.073 148.542C150.835 149.1 150.716 149.776 150.716 150.567ZM160.038 155.979C160.038 155.625 160.154 155.337 160.386 155.116C160.619 154.889 160.898 154.775 161.225 154.775C161.568 154.775 161.856 154.889 162.088 155.116C162.321 155.343 162.437 155.63 162.437 155.979C162.437 156.311 162.321 156.59 162.088 156.817C161.856 157.039 161.568 157.149 161.225 157.149C160.898 157.149 160.619 157.039 160.386 156.817C160.154 156.59 160.038 156.311 160.038 155.979Z" fill="white"/>
<path d="M26.9182 177H25.7229V167.047H25.6565C25.3632 167.258 25.0699 167.471 24.7766 167.687C24.4833 167.897 24.1873 168.107 23.8884 168.317C23.5951 168.528 23.2991 168.741 23.0003 168.957V167.678C23.454 167.346 23.9078 167.014 24.3616 166.682C24.8154 166.345 25.2691 166.01 25.7229 165.678H26.9182V177ZM31.5667 171.131V171.555C31.5667 172.518 31.6801 173.342 31.907 174.028C32.1394 174.715 32.4604 175.243 32.8699 175.614C33.2849 175.979 33.7664 176.162 34.3142 176.162C34.8676 176.162 35.3491 175.979 35.7586 175.614C36.1681 175.243 36.4863 174.715 36.7132 174.028C36.94 173.342 37.0535 172.518 37.0535 171.555V171.131C37.0535 170.174 36.94 169.352 36.7132 168.666C36.4863 167.974 36.1681 167.443 35.7586 167.072C35.3491 166.696 34.8676 166.508 34.3142 166.508C33.7664 166.508 33.2849 166.696 32.8699 167.072C32.4604 167.443 32.1394 167.974 31.907 168.666C31.6801 169.352 31.5667 170.174 31.5667 171.131ZM30.3714 171.571V171.131C30.3714 169.98 30.5263 168.979 30.8362 168.126C31.1516 167.269 31.6026 166.605 32.1892 166.134C32.7813 165.664 33.4924 165.429 34.3225 165.429C35.1526 165.429 35.8609 165.664 36.4475 166.134C37.0341 166.605 37.4824 167.266 37.7923 168.118C38.1021 168.97 38.2571 169.975 38.2571 171.131V171.571C38.2571 172.429 38.1686 173.209 37.9915 173.912C37.8144 174.609 37.5571 175.207 37.2195 175.705C36.8819 176.198 36.4697 176.577 35.9827 176.842C35.4957 177.108 34.9395 177.241 34.3142 177.241C33.4897 177.241 32.7813 177.008 32.1892 176.543C31.5971 176.073 31.1461 175.415 30.8362 174.568C30.5263 173.721 30.3714 172.722 30.3714 171.571ZM40.9798 177V165.072H42.1751V169.928H42.2415C42.3023 169.712 42.4324 169.468 42.6316 169.197C42.8308 168.921 43.1186 168.68 43.4949 168.475C43.8767 168.27 44.372 168.168 44.9807 168.168C45.8219 168.168 46.5219 168.411 47.0808 168.898C47.6397 169.38 47.9192 170.108 47.9192 171.082V177H46.7156V171.463C46.7156 170.993 46.6326 170.592 46.4666 170.26C46.3006 169.928 46.0626 169.676 45.7527 169.504C45.4428 169.327 45.0693 169.239 44.6321 169.239C44.0898 169.239 43.636 169.369 43.2708 169.629C42.9055 169.883 42.6316 170.229 42.449 170.667C42.2664 171.098 42.1751 171.577 42.1751 172.103V177H40.9798ZM51.7542 171.131V171.555C51.7542 172.518 51.8676 173.342 52.0945 174.028C52.3269 174.715 52.6479 175.243 53.0574 175.614C53.4724 175.979 53.9539 176.162 54.5017 176.162C55.0551 176.162 55.5366 175.979 55.9461 175.614C56.3556 175.243 56.6738 174.715 56.9007 174.028C57.1275 173.342 57.241 172.518 57.241 171.555V171.131C57.241 170.174 57.1275 169.352 56.9007 168.666C56.6738 167.974 56.3556 167.443 55.9461 167.072C55.5366 166.696 55.0551 166.508 54.5017 166.508C53.9539 166.508 53.4724 166.696 53.0574 167.072C52.6479 167.443 52.3269 167.974 52.0945 168.666C51.8676 169.352 51.7542 170.174 51.7542 171.131ZM50.5589 171.571V171.131C50.5589 169.98 50.7138 168.979 51.0237 168.126C51.3391 167.269 51.7901 166.605 52.3767 166.134C52.9688 165.664 53.6799 165.429 54.51 165.429C55.3401 165.429 56.0484 165.664 56.635 166.134C57.2216 166.605 57.6699 167.266 57.9798 168.118C58.2896 168.97 58.4446 169.975 58.4446 171.131V171.571C58.4446 172.429 58.3561 173.209 58.179 173.912C58.0019 174.609 57.7446 175.207 57.407 175.705C57.0694 176.198 56.6572 176.577 56.1702 176.842C55.6832 177.108 55.127 177.241 54.5017 177.241C53.6772 177.241 52.9688 177.008 52.3767 176.543C51.7846 176.073 51.3336 175.415 51.0237 174.568C50.7138 173.721 50.5589 172.722 50.5589 171.571ZM61.9641 171.131V171.555C61.9641 172.518 62.0776 173.342 62.3045 174.028C62.5369 174.715 62.8578 175.243 63.2673 175.614C63.6824 175.979 64.1638 176.162 64.7117 176.162C65.2651 176.162 65.7465 175.979 66.156 175.614C66.5655 175.243 66.8837 174.715 67.1106 174.028C67.3375 173.342 67.4509 172.518 67.4509 171.555V171.131C67.4509 170.174 67.3375 169.352 67.1106 168.666C66.8837 167.974 66.5655 167.443 66.156 167.072C65.7465 166.696 65.2651 166.508 64.7117 166.508C64.1638 166.508 63.6824 166.696 63.2673 167.072C62.8578 167.443 62.5369 167.974 62.3045 168.666C62.0776 169.352 61.9641 170.174 61.9641 171.131ZM60.7688 171.571V171.131C60.7688 169.98 60.9238 168.979 61.2337 168.126C61.5491 167.269 62.0001 166.605 62.5867 166.134C63.1788 165.664 63.8899 165.429 64.72 165.429C65.5501 165.429 66.2584 165.664 66.845 166.134C67.4316 166.605 67.8798 167.266 68.1897 168.118C68.4996 168.97 68.6546 169.975 68.6546 171.131V171.571C68.6546 172.429 68.566 173.209 68.3889 173.912C68.2118 174.609 67.9545 175.207 67.617 175.705C67.2794 176.198 66.8671 176.577 66.3801 176.842C65.8932 177.108 65.337 177.241 64.7117 177.241C63.8871 177.241 63.1788 177.008 62.5867 176.543C61.9946 176.073 61.5436 175.415 61.2337 174.568C60.9238 173.721 60.7688 172.722 60.7688 171.571ZM79.761 172.883H74.5315V171.812H79.761V172.883ZM89.7219 177H88.5266V167.047H88.4602C88.1669 167.258 87.8736 167.471 87.5803 167.687C87.287 167.897 86.991 168.107 86.6922 168.317C86.3989 168.528 86.1028 168.741 85.804 168.957V167.678C86.2577 167.346 86.7115 167.014 87.1653 166.682C87.6191 166.345 88.0729 166.01 88.5266 165.678H89.7219V177ZM97.2757 177H96.0803V167.047H96.0139C95.7206 167.258 95.4273 167.471 95.134 167.687C94.8408 167.897 94.5447 168.107 94.2459 168.317C93.9526 168.528 93.6565 168.741 93.3577 168.957V167.678C93.8115 167.346 94.2652 167.014 94.719 166.682C95.1728 166.345 95.6266 166.01 96.0803 165.678H97.2757V177ZM101.144 177V165.072H102.339V169.928H102.406C102.466 169.712 102.596 169.468 102.796 169.197C102.995 168.921 103.283 168.68 103.659 168.475C104.041 168.27 104.536 168.168 105.145 168.168C105.986 168.168 106.686 168.411 107.245 168.898C107.804 169.38 108.083 170.108 108.083 171.082V177H106.88V171.463C106.88 170.993 106.797 170.592 106.631 170.26C106.465 169.928 106.227 169.676 105.917 169.504C105.607 169.327 105.233 169.239 104.796 169.239C104.254 169.239 103.8 169.369 103.435 169.629C103.07 169.883 102.796 170.229 102.613 170.667C102.43 171.098 102.339 171.577 102.339 172.103V177H101.144ZM111.918 171.131V171.555C111.918 172.518 112.032 173.342 112.259 174.028C112.491 174.715 112.812 175.243 113.221 175.614C113.636 175.979 114.118 176.162 114.666 176.162C115.219 176.162 115.701 175.979 116.11 175.614C116.52 175.243 116.838 174.715 117.065 174.028C117.292 173.342 117.405 172.518 117.405 171.555V171.131C117.405 170.174 117.292 169.352 117.065 168.666C116.838 167.974 116.52 167.443 116.11 167.072C115.701 166.696 115.219 166.508 114.666 166.508C114.118 166.508 113.636 166.696 113.221 167.072C112.812 167.443 112.491 167.974 112.259 168.666C112.032 169.352 111.918 170.174 111.918 171.131ZM110.723 171.571V171.131C110.723 169.98 110.878 168.979 111.188 168.126C111.503 167.269 111.954 166.605 112.541 166.134C113.133 165.664 113.844 165.429 114.674 165.429C115.504 165.429 116.212 165.664 116.799 166.134C117.386 166.605 117.834 167.266 118.144 168.118C118.454 168.97 118.609 169.975 118.609 171.131V171.571C118.609 172.429 118.52 173.209 118.343 173.912C118.166 174.609 117.909 175.207 117.571 175.705C117.233 176.198 116.821 176.577 116.334 176.842C115.847 177.108 115.291 177.241 114.666 177.241C113.841 177.241 113.133 177.008 112.541 176.543C111.949 176.073 111.498 175.415 111.188 174.568C110.878 173.721 110.723 172.722 110.723 171.571ZM122.128 171.131V171.555C122.128 172.518 122.242 173.342 122.469 174.028C122.701 174.715 123.022 175.243 123.431 175.614C123.846 175.979 124.328 176.162 124.876 176.162C125.429 176.162 125.911 175.979 126.32 175.614C126.73 175.243 127.048 174.715 127.275 174.028C127.502 173.342 127.615 172.518 127.615 171.555V171.131C127.615 170.174 127.502 169.352 127.275 168.666C127.048 167.974 126.73 167.443 126.32 167.072C125.911 166.696 125.429 166.508 124.876 166.508C124.328 166.508 123.846 166.696 123.431 167.072C123.022 167.443 122.701 167.974 122.469 168.666C122.242 169.352 122.128 170.174 122.128 171.131ZM120.933 171.571V171.131C120.933 169.98 121.088 168.979 121.398 168.126C121.713 167.269 122.164 166.605 122.751 166.134C123.343 165.664 124.054 165.429 124.884 165.429C125.714 165.429 126.422 165.664 127.009 166.134C127.596 166.605 128.044 167.266 128.354 168.118C128.664 168.97 128.819 169.975 128.819 171.131V171.571C128.819 172.429 128.73 173.209 128.553 173.912C128.376 174.609 128.119 175.207 127.781 175.705C127.443 176.198 127.031 176.577 126.544 176.842C126.057 177.108 125.501 177.241 124.876 177.241C124.051 177.241 123.343 177.008 122.751 176.543C122.159 176.073 121.708 175.415 121.398 174.568C121.088 173.721 120.933 172.722 120.933 171.571Z" fill="white"/>
<rect x="12" y="186" width="4.67213" height="60" rx="2.33607" fill="#B1861A"/>
<path d="M25.4324 202H23.0086V190.669H25.8225L28.7361 197.127H28.8274L31.741 190.669H34.5383V202H32.0813V194.936H31.9485L29.5662 200.298H27.9641L25.5569 194.936H25.4324V202ZM39.552 202.133C38.6887 202.133 37.9832 201.895 37.4353 201.419C36.893 200.938 36.6218 200.273 36.6218 199.427C36.6218 198.619 36.893 197.974 37.4353 197.493C37.9832 197.006 38.7717 196.762 39.801 196.762H41.8679V196.023C41.8679 195.664 41.7573 195.393 41.5359 195.21C41.3145 195.027 41.0157 194.936 40.6394 194.936C40.3904 194.936 40.1801 194.975 40.0086 195.052C39.837 195.124 39.7014 195.227 39.6018 195.359C39.5077 195.492 39.4496 195.644 39.4275 195.816H36.9456C36.9622 195.462 37.0396 195.119 37.178 194.787C37.3163 194.449 37.5294 194.147 37.8172 193.882C38.1049 193.611 38.484 193.398 38.9544 193.243C39.4247 193.082 40.0003 193.002 40.6809 193.002C41.3837 193.002 42.0201 193.102 42.5901 193.301C43.1656 193.5 43.6222 193.826 43.9597 194.28C44.3028 194.734 44.4744 195.343 44.4744 196.106V202H41.9924V200.913H41.8679C41.7683 201.112 41.6189 201.306 41.4197 201.494C41.226 201.682 40.9742 201.837 40.6643 201.958C40.36 202.075 39.9892 202.133 39.552 202.133ZM40.4651 200.282C40.7141 200.282 40.9438 200.232 41.1541 200.132C41.3699 200.027 41.5414 199.886 41.6687 199.709C41.8015 199.526 41.8679 199.316 41.8679 199.078V198.215H40.4983C40.0833 198.215 39.7678 198.309 39.552 198.497C39.3362 198.685 39.2283 198.929 39.2283 199.228C39.2283 199.582 39.3528 199.847 39.6018 200.024C39.8564 200.196 40.1441 200.282 40.4651 200.282ZM47.4544 193.268V191.076H50.011V193.268H51.9534V195.251H50.011V199.012C50.011 199.405 50.1078 199.679 50.3015 199.833C50.5007 199.983 50.8023 200.058 51.2063 200.058C51.3668 200.058 51.519 200.055 51.6629 200.049C51.8123 200.038 51.9257 200.03 52.0032 200.024V201.925C51.9036 201.942 51.7154 201.964 51.4387 201.992C51.1676 202.019 50.877 202.033 50.5672 202.033C49.8145 202.033 49.2031 201.95 48.7327 201.784C48.2678 201.613 47.9275 201.339 47.7117 200.962C47.5014 200.586 47.3963 200.091 47.3963 199.477V195.251H46.0432V193.268H47.4544ZM53.9207 202V190.072H56.5603V194.67H56.6931C56.7595 194.455 56.8896 194.217 57.0833 193.957C57.277 193.696 57.5509 193.472 57.905 193.284C58.2647 193.096 58.7185 193.002 59.2664 193.002C60.1297 193.002 60.8325 193.265 61.3748 193.791C61.9171 194.311 62.1882 195.097 62.1882 196.148V202H59.5403V196.845C59.5403 196.43 59.4739 196.104 59.3411 195.866C59.2083 195.622 59.034 195.451 58.8181 195.351C58.6023 195.246 58.3727 195.193 58.1292 195.193C57.8248 195.193 57.5536 195.271 57.3157 195.426C57.0777 195.575 56.8923 195.794 56.7595 196.082C56.6267 196.364 56.5603 196.704 56.5603 197.103V202H53.9207ZM68.3142 202.166C67.4786 202.166 66.7426 202.011 66.1062 201.701C65.4754 201.386 64.9828 200.918 64.6287 200.298C64.28 199.673 64.1057 198.901 64.1057 197.982V197.136C64.1057 196.212 64.2883 195.442 64.6536 194.828C65.0243 194.208 65.5196 193.746 66.1394 193.442C66.7592 193.132 67.4454 192.977 68.198 192.977C69.0004 192.977 69.706 193.143 70.3147 193.475C70.9234 193.807 71.3993 194.286 71.7424 194.911C72.0855 195.531 72.2571 196.272 72.2571 197.136V198.115H66.679V198.522C66.679 199.031 66.8312 199.441 67.1355 199.75C67.4454 200.055 67.8355 200.207 68.3059 200.207C68.5715 200.207 68.8095 200.168 69.0198 200.091C69.2356 200.008 69.4099 199.894 69.5427 199.75C69.6756 199.607 69.753 199.443 69.7752 199.261H72.199C72.1824 199.56 72.0966 199.878 71.9417 200.215C71.7923 200.553 71.5626 200.871 71.2527 201.17C70.9428 201.463 70.5444 201.704 70.0574 201.892C69.5759 202.075 68.9949 202.166 68.3142 202.166ZM66.679 196.629H69.7254C69.7254 196.618 69.7254 196.61 69.7254 196.604C69.7254 196.593 69.7254 196.582 69.7254 196.571C69.7254 196.234 69.6617 195.938 69.5344 195.683C69.4127 195.429 69.2384 195.229 69.0115 195.085C68.7846 194.942 68.519 194.87 68.2146 194.87C67.9103 194.87 67.6419 194.942 67.4094 195.085C67.1826 195.229 67.0027 195.429 66.8699 195.683C66.7426 195.938 66.679 196.234 66.679 196.571C66.679 196.582 66.679 196.593 66.679 196.604C66.679 196.61 66.679 196.618 66.679 196.629ZM67.1023 191.749L69.0696 188.818H71.344L69.0115 191.749H67.1023ZM74.2161 202V193.135H76.781V194.637H76.9138C76.9802 194.41 77.102 194.172 77.2791 193.923C77.4617 193.669 77.719 193.453 78.051 193.276C78.3886 193.093 78.8202 193.002 79.346 193.002C79.7942 193.002 80.1816 193.074 80.5081 193.218C80.8346 193.362 81.103 193.561 81.3132 193.815C81.5235 194.064 81.6702 194.349 81.7532 194.67H81.8611C81.9496 194.405 82.1074 194.145 82.3342 193.89C82.5611 193.636 82.8572 193.425 83.2224 193.259C83.5932 193.088 84.0331 193.002 84.5423 193.002C85.4332 193.002 86.1222 193.262 86.6091 193.782C87.1017 194.297 87.3479 194.986 87.3479 195.849V202H84.7083V196.688C84.7083 196.311 84.6502 196.012 84.534 195.791C84.4177 195.564 84.26 195.401 84.0608 195.301C83.8616 195.196 83.6402 195.144 83.3967 195.144C83.1477 195.144 82.9208 195.204 82.7161 195.326C82.5113 195.448 82.3481 195.628 82.2263 195.866C82.1046 196.104 82.0437 196.405 82.0437 196.771V202H79.5203V196.712C79.5203 196.325 79.4594 196.018 79.3377 195.791C79.2159 195.564 79.0527 195.401 78.8479 195.301C78.6487 195.196 78.4329 195.144 78.2005 195.144C77.9514 195.144 77.7245 195.202 77.5198 195.318C77.3206 195.429 77.1601 195.603 77.0383 195.841C76.9221 196.079 76.864 196.383 76.864 196.754V202H74.2161ZM92.179 202.133C91.3157 202.133 90.6101 201.895 90.0623 201.419C89.52 200.938 89.2488 200.273 89.2488 199.427C89.2488 198.619 89.52 197.974 90.0623 197.493C90.6101 197.006 91.3987 196.762 92.428 196.762H94.4949V196.023C94.4949 195.664 94.3842 195.393 94.1629 195.21C93.9415 195.027 93.6427 194.936 93.2664 194.936C93.0173 194.936 92.8071 194.975 92.6355 195.052C92.464 195.124 92.3284 195.227 92.2288 195.359C92.1347 195.492 92.0766 195.644 92.0545 195.816H89.5725C89.5891 195.462 89.6666 195.119 89.8049 194.787C89.9433 194.449 90.1563 194.147 90.4441 193.882C90.7319 193.611 91.1109 193.398 91.5813 193.243C92.0517 193.082 92.6272 193.002 93.3079 193.002C94.0107 193.002 94.6471 193.102 95.2171 193.301C95.7926 193.5 96.2491 193.826 96.5867 194.28C96.9298 194.734 97.1013 195.343 97.1013 196.106V202H94.6194V200.913H94.4949C94.3953 201.112 94.2459 201.306 94.0466 201.494C93.853 201.682 93.6012 201.837 93.2913 201.958C92.9869 202.075 92.6161 202.133 92.179 202.133ZM93.0921 200.282C93.3411 200.282 93.5707 200.232 93.781 200.132C93.9968 200.027 94.1684 199.886 94.2957 199.709C94.4285 199.526 94.4949 199.316 94.4949 199.078V198.215H93.1253C92.7102 198.215 92.3948 198.309 92.179 198.497C91.9632 198.685 91.8552 198.929 91.8552 199.228C91.8552 199.582 91.9798 199.847 92.2288 200.024C92.4833 200.196 92.7711 200.282 93.0921 200.282ZM100.081 193.268V191.076H102.638V193.268H104.58V195.251H102.638V199.012C102.638 199.405 102.735 199.679 102.928 199.833C103.128 199.983 103.429 200.058 103.833 200.058C103.994 200.058 104.146 200.055 104.29 200.049C104.439 200.038 104.553 200.03 104.63 200.024V201.925C104.531 201.942 104.342 201.964 104.066 201.992C103.795 202.019 103.504 202.033 103.194 202.033C102.442 202.033 101.83 201.95 101.36 201.784C100.895 201.613 100.554 201.339 100.339 200.962C100.128 200.586 100.023 200.091 100.023 199.477V195.251H98.6702V193.268H100.081ZM106.639 202V193.135H109.287V202H106.639ZM106.382 190.603C106.382 190.199 106.525 189.875 106.813 189.632C107.101 189.388 107.483 189.267 107.959 189.267C108.429 189.267 108.808 189.388 109.096 189.632C109.389 189.875 109.536 190.199 109.536 190.603C109.536 191.001 109.392 191.322 109.104 191.566C108.817 191.804 108.435 191.923 107.959 191.923C107.488 191.923 107.107 191.804 106.813 191.566C106.525 191.322 106.382 191.001 106.382 190.603ZM114.674 193.035C115.089 193.035 115.468 193.096 115.811 193.218C116.154 193.34 116.448 193.514 116.691 193.741C116.935 193.962 117.109 194.228 117.214 194.538H117.339V193.135H119.97V204.938H117.314V200.614H117.189C117.112 200.841 116.993 201.045 116.832 201.228C116.677 201.411 116.489 201.568 116.268 201.701C116.052 201.828 115.806 201.928 115.529 202C115.258 202.066 114.97 202.1 114.666 202.1C113.991 202.1 113.41 201.939 112.923 201.618C112.436 201.297 112.062 200.835 111.802 200.232C111.547 199.629 111.42 198.907 111.42 198.065V197.061C111.42 196.22 111.55 195.5 111.81 194.903C112.07 194.3 112.444 193.838 112.931 193.517C113.418 193.196 113.999 193.035 114.674 193.035ZM115.712 195.094C115.391 195.094 115.111 195.18 114.873 195.351C114.641 195.517 114.461 195.758 114.334 196.073C114.212 196.389 114.151 196.768 114.151 197.21V197.933C114.151 198.375 114.212 198.757 114.334 199.078C114.461 199.394 114.641 199.637 114.873 199.809C115.111 199.975 115.393 200.058 115.72 200.058C116.052 200.058 116.337 199.975 116.575 199.809C116.813 199.643 116.996 199.405 117.123 199.095C117.25 198.785 117.314 198.414 117.314 197.982V197.094C117.314 196.69 117.247 196.339 117.115 196.04C116.982 195.741 116.796 195.509 116.558 195.343C116.32 195.177 116.038 195.094 115.712 195.094ZM130.495 193.135V202H127.93V200.514H127.798C127.72 200.747 127.576 200.987 127.366 201.236C127.156 201.485 126.873 201.698 126.519 201.875C126.165 202.047 125.728 202.133 125.208 202.133C124.621 202.133 124.107 202.025 123.664 201.809C123.227 201.588 122.886 201.25 122.643 200.796C122.399 200.337 122.278 199.753 122.278 199.045V193.135H124.926V198.364C124.926 198.79 124.995 199.12 125.133 199.352C125.271 199.579 125.446 199.737 125.656 199.825C125.872 199.908 126.09 199.95 126.312 199.95C126.588 199.95 126.843 199.886 127.075 199.759C127.308 199.626 127.496 199.435 127.64 199.186C127.784 198.937 127.856 198.638 127.856 198.29V193.135H130.495ZM136.679 202.166C135.844 202.166 135.108 202.011 134.471 201.701C133.841 201.386 133.348 200.918 132.994 200.298C132.645 199.673 132.471 198.901 132.471 197.982V197.136C132.471 196.212 132.654 195.442 133.019 194.828C133.39 194.208 133.885 193.746 134.505 193.442C135.124 193.132 135.811 192.977 136.563 192.977C137.366 192.977 138.071 193.143 138.68 193.475C139.289 193.807 139.765 194.286 140.108 194.911C140.451 195.531 140.622 196.272 140.622 197.136V198.115H135.044V198.522C135.044 199.031 135.196 199.441 135.501 199.75C135.811 200.055 136.201 200.207 136.671 200.207C136.937 200.207 137.175 200.168 137.385 200.091C137.601 200.008 137.775 199.894 137.908 199.75C138.041 199.607 138.118 199.443 138.14 199.261H140.564C140.548 199.56 140.462 199.878 140.307 200.215C140.157 200.553 139.928 200.871 139.618 201.17C139.308 201.463 138.91 201.704 138.423 201.892C137.941 202.075 137.36 202.166 136.679 202.166ZM135.044 196.629H138.091C138.091 196.618 138.091 196.61 138.091 196.604C138.091 196.593 138.091 196.582 138.091 196.571C138.091 196.234 138.027 195.938 137.9 195.683C137.778 195.429 137.604 195.229 137.377 195.085C137.15 194.942 136.884 194.87 136.58 194.87C136.275 194.87 136.007 194.942 135.775 195.085C135.548 195.229 135.368 195.429 135.235 195.683C135.108 195.938 135.044 196.234 135.044 196.571C135.044 196.582 135.044 196.593 135.044 196.604C135.044 196.61 135.044 196.618 135.044 196.629ZM142.299 195.799C142.299 195.119 142.471 194.574 142.814 194.164C143.162 193.749 143.619 193.447 144.183 193.259C144.753 193.071 145.368 192.977 146.026 192.977C146.707 192.977 147.313 193.077 147.844 193.276C148.375 193.475 148.79 193.774 149.089 194.172C149.393 194.565 149.546 195.055 149.546 195.642H147.238C147.221 195.481 147.163 195.332 147.064 195.193C146.97 195.049 146.834 194.933 146.657 194.845C146.48 194.751 146.256 194.704 145.985 194.704C145.603 194.704 145.31 194.787 145.105 194.953C144.9 195.119 144.798 195.334 144.798 195.6C144.798 195.805 144.875 195.971 145.03 196.098C145.185 196.22 145.381 196.319 145.619 196.397C145.863 196.469 146.12 196.527 146.391 196.571C146.663 196.61 146.914 196.646 147.147 196.679C147.689 196.768 148.162 196.912 148.566 197.111C148.97 197.305 149.283 197.57 149.504 197.908C149.731 198.245 149.844 198.677 149.844 199.203C149.844 199.817 149.69 200.345 149.38 200.788C149.07 201.231 148.619 201.571 148.027 201.809C147.44 202.047 146.723 202.166 145.877 202.166C145.063 202.166 144.377 202.053 143.818 201.826C143.259 201.593 142.833 201.275 142.54 200.871C142.252 200.467 142.108 200.002 142.108 199.477H144.673C144.695 199.659 144.759 199.822 144.864 199.966C144.969 200.11 145.116 200.224 145.304 200.307C145.498 200.384 145.73 200.423 146.001 200.423C146.306 200.423 146.552 200.384 146.74 200.307C146.928 200.224 147.067 200.113 147.155 199.975C147.244 199.831 147.288 199.676 147.288 199.51C147.288 199.255 147.183 199.067 146.972 198.945C146.762 198.818 146.491 198.724 146.159 198.663C145.827 198.597 145.476 198.528 145.105 198.456C144.59 198.356 144.12 198.209 143.694 198.016C143.268 197.822 142.927 197.548 142.673 197.194C142.424 196.84 142.299 196.375 142.299 195.799Z" fill="white"/>
<path d="M23.241 222V210.669H27.5408C28.5092 210.669 29.2784 210.918 29.8484 211.417C30.4184 211.915 30.7034 212.595 30.7034 213.458C30.7034 213.885 30.6314 214.266 30.4876 214.604C30.3437 214.936 30.1362 215.215 29.865 215.442C29.5938 215.669 29.2646 215.841 28.8772 215.957V216.023C29.3808 216.09 29.8152 216.242 30.1804 216.48C30.5512 216.718 30.8362 217.036 31.0354 217.435C31.2402 217.827 31.3425 218.29 31.3425 218.821C31.3425 219.485 31.1821 220.055 30.8611 220.531C30.5401 221.001 30.0836 221.364 29.4915 221.618C28.8993 221.873 28.1993 222 27.3914 222H23.241ZM24.76 211.981V215.534H26.47C27.0953 215.534 27.6044 215.47 27.9973 215.343C28.3958 215.21 28.6891 215.011 28.8772 214.745C29.0709 214.474 29.1677 214.131 29.1677 213.716C29.1677 213.168 29.0017 212.742 28.6697 212.438C28.3377 212.133 27.8728 211.981 27.2752 211.981H24.76ZM24.76 216.812V220.688H26.7024C27.7981 220.688 28.5839 220.542 29.0598 220.249C29.5413 219.95 29.782 219.474 29.782 218.821C29.782 218.395 29.6907 218.032 29.5081 217.733C29.3255 217.435 29.0571 217.208 28.7029 217.053C28.3543 216.892 27.9309 216.812 27.4329 216.812H24.76ZM34.9866 213.824H33.5007V213.766C33.5007 213.334 33.5782 212.919 33.7332 212.521C33.8881 212.122 34.1178 211.768 34.4221 211.458C34.7265 211.143 35.1028 210.894 35.551 210.711C35.9993 210.528 36.5167 210.437 37.1033 210.437C37.8227 210.437 38.448 210.573 38.9793 210.844C39.5105 211.109 39.92 211.477 40.2078 211.948C40.5011 212.418 40.6477 212.949 40.6477 213.542C40.6477 214.012 40.5592 214.444 40.3821 214.836C40.2105 215.224 39.9781 215.603 39.6848 215.974C39.3971 216.339 39.0761 216.723 38.7219 217.127L35.7088 220.581V220.672H40.8635V222H33.5423V221.037L37.8089 216.181C38.0136 215.943 38.2156 215.697 38.4148 215.442C38.614 215.182 38.7773 214.906 38.9046 214.612C39.0374 214.319 39.1038 213.998 39.1038 213.649C39.1038 213.262 39.0152 212.924 38.8382 212.637C38.6611 212.349 38.4176 212.128 38.1077 211.973C37.8033 211.818 37.4575 211.74 37.0701 211.74C36.6329 211.74 36.2566 211.834 35.9412 212.022C35.6313 212.211 35.3933 212.46 35.2273 212.77C35.0668 213.074 34.9866 213.406 34.9866 213.766C34.9866 213.771 34.9866 213.782 34.9866 213.799C34.9866 213.81 34.9866 213.818 34.9866 213.824ZM44.491 216.14V216.538C44.491 217.446 44.5934 218.226 44.7981 218.879C45.0084 219.532 45.3017 220.035 45.678 220.39C46.0598 220.738 46.5081 220.913 47.0227 220.913C47.5484 220.913 47.9994 220.738 48.3757 220.39C48.752 220.035 49.0426 219.532 49.2473 218.879C49.4521 218.226 49.5545 217.446 49.5545 216.538V216.14C49.5545 215.232 49.4521 214.452 49.2473 213.799C49.0426 213.14 48.752 212.637 48.3757 212.288C47.9994 211.934 47.5484 211.757 47.0227 211.757C46.5081 211.757 46.0598 211.934 45.678 212.288C45.3017 212.637 45.0084 213.14 44.7981 213.799C44.5934 214.452 44.491 215.232 44.491 216.14ZM42.9719 216.555V216.131C42.9719 214.991 43.1324 213.995 43.4534 213.143C43.7743 212.285 44.2364 211.621 44.8396 211.151C45.4483 210.675 46.1816 210.437 47.0393 210.437C47.8971 210.437 48.6248 210.675 49.2224 211.151C49.8256 211.621 50.2849 212.283 50.6004 213.135C50.9158 213.981 51.0735 214.98 51.0735 216.131V216.555C51.0735 217.412 50.9822 218.19 50.7996 218.887C50.6225 219.584 50.3596 220.185 50.011 220.688C49.6679 221.187 49.2446 221.568 48.741 221.834C48.2374 222.1 47.6646 222.232 47.0227 222.232C46.1705 222.232 45.44 221.997 44.8313 221.527C44.2281 221.056 43.766 220.398 43.4451 219.551C43.1297 218.699 42.9719 217.7 42.9719 216.555ZM52.908 210.669H60.1546V212.047L55.5227 222H53.9207L58.6106 212.089V211.998H52.908V210.669ZM71.0037 218.024H65.7742V216.679H71.0037V218.024ZM81.4627 210.669C82.1987 210.669 82.8378 210.822 83.3801 211.126C83.9225 211.425 84.343 211.84 84.6419 212.371C84.9407 212.902 85.0901 213.519 85.0901 214.222C85.0901 214.919 84.9407 215.536 84.6419 216.073C84.343 216.604 83.9197 217.02 83.3718 217.318C82.8295 217.617 82.1904 217.767 81.4544 217.767H78.823V222H77.2957V210.669H81.4627ZM83.5213 214.222C83.5213 213.514 83.3276 212.969 82.9402 212.587C82.5584 212.2 82.0188 212.006 81.3215 212.006H78.823V216.438H81.3215C81.7919 216.438 82.1876 216.353 82.5086 216.181C82.8351 216.004 83.0841 215.75 83.2556 215.417C83.4327 215.085 83.5213 214.687 83.5213 214.222ZM91.4568 210.669C92.2149 210.669 92.8679 210.811 93.4158 211.093C93.9636 211.369 94.387 211.762 94.6858 212.271C94.9846 212.781 95.134 213.378 95.134 214.064C95.134 214.585 95.0455 215.055 94.8684 215.476C94.6913 215.891 94.4451 216.248 94.1297 216.546C93.8142 216.845 93.4462 217.072 93.0257 217.227L95.3333 222H93.5984L91.5149 217.518H88.8421V222H87.323V210.669H91.4568ZM88.8421 216.206H91.1995C91.9632 216.206 92.547 216.032 92.9509 215.683C93.3549 215.334 93.5569 214.823 93.5569 214.147C93.5569 213.461 93.3521 212.933 92.9426 212.562C92.5387 212.186 91.977 211.998 91.2576 211.998H88.8421V216.206ZM105.029 215.509C105.029 214.673 104.893 213.981 104.622 213.434C104.356 212.886 103.997 212.476 103.543 212.205C103.089 211.928 102.574 211.79 101.999 211.79C101.423 211.79 100.906 211.928 100.447 212.205C99.9928 212.476 99.6331 212.886 99.3674 213.434C99.1018 213.981 98.969 214.673 98.969 215.509V217.161C98.969 217.991 99.1018 218.682 99.3674 219.236C99.6331 219.789 99.9928 220.201 100.447 220.473C100.906 220.744 101.423 220.879 101.999 220.879C102.574 220.879 103.089 220.744 103.543 220.473C103.997 220.201 104.356 219.789 104.622 219.236C104.893 218.682 105.029 217.991 105.029 217.161V215.509ZM106.564 217.161C106.564 218.229 106.376 219.142 106 219.9C105.623 220.658 105.092 221.236 104.406 221.635C103.725 222.033 102.923 222.232 101.999 222.232C101.069 222.232 100.261 222.033 99.575 221.635C98.8943 221.236 98.3658 220.658 97.9895 219.9C97.6187 219.142 97.4334 218.229 97.4334 217.161V215.517C97.4334 214.444 97.6187 213.528 97.9895 212.77C98.3658 212.011 98.8943 211.433 99.575 211.035C100.261 210.636 101.069 210.437 101.999 210.437C102.923 210.437 103.725 210.636 104.406 211.035C105.092 211.433 105.623 212.011 106 212.77C106.376 213.528 106.564 214.444 106.564 215.517V217.161ZM110.781 222H109.254V210.669H116.002V212.022H110.781V215.808H115.562V217.144H110.781V222ZM125.133 220.655V222H118.285V210.669H125.133V212.014H119.804V215.567H124.834V216.878H119.804V220.655H125.133ZM127.034 219.128H128.578C128.633 219.399 128.736 219.643 128.885 219.858C129.034 220.074 129.225 220.26 129.458 220.415C129.696 220.569 129.967 220.691 130.271 220.78C130.581 220.863 130.921 220.904 131.292 220.904C131.824 220.904 132.277 220.824 132.654 220.664C133.035 220.503 133.329 220.276 133.533 219.983C133.738 219.69 133.841 219.344 133.841 218.945C133.841 218.492 133.691 218.126 133.392 217.85C133.094 217.567 132.629 217.346 131.998 217.186L130.031 216.671C129.461 216.527 128.976 216.317 128.578 216.04C128.179 215.763 127.875 215.429 127.665 215.036C127.455 214.637 127.349 214.186 127.349 213.683C127.349 213.046 127.521 212.482 127.864 211.989C128.207 211.491 128.675 211.104 129.267 210.827C129.865 210.545 130.545 210.404 131.309 210.404C132.056 210.404 132.714 210.531 133.284 210.786C133.854 211.04 134.308 211.392 134.646 211.84C134.989 212.288 135.188 212.8 135.243 213.375H133.708C133.641 213.038 133.5 212.747 133.284 212.504C133.069 212.26 132.792 212.072 132.454 211.939C132.117 211.801 131.727 211.732 131.284 211.732C130.57 211.732 129.995 211.906 129.557 212.255C129.12 212.604 128.902 213.057 128.902 213.616C128.902 214.015 129.037 214.349 129.308 214.621C129.585 214.892 129.981 215.094 130.495 215.227L132.429 215.733C133.094 215.91 133.644 216.134 134.081 216.405C134.518 216.676 134.845 217.011 135.061 217.41C135.277 217.808 135.385 218.281 135.385 218.829C135.385 219.515 135.21 220.116 134.862 220.63C134.518 221.139 134.029 221.535 133.392 221.817C132.761 222.094 132.009 222.232 131.135 222.232C130.537 222.232 129.995 222.158 129.508 222.008C129.021 221.859 128.6 221.646 128.246 221.369C127.892 221.092 127.609 220.766 127.399 220.39C127.194 220.008 127.073 219.587 127.034 219.128ZM137.111 219.128H138.655C138.71 219.399 138.813 219.643 138.962 219.858C139.112 220.074 139.303 220.26 139.535 220.415C139.773 220.569 140.044 220.691 140.348 220.78C140.658 220.863 140.999 220.904 141.369 220.904C141.901 220.904 142.354 220.824 142.731 220.664C143.113 220.503 143.406 220.276 143.611 219.983C143.815 219.69 143.918 219.344 143.918 218.945C143.918 218.492 143.768 218.126 143.469 217.85C143.171 217.567 142.706 217.346 142.075 217.186L140.108 216.671C139.538 216.527 139.053 216.317 138.655 216.04C138.257 215.763 137.952 215.429 137.742 215.036C137.532 214.637 137.427 214.186 137.427 213.683C137.427 213.046 137.598 212.482 137.941 211.989C138.284 211.491 138.752 211.104 139.344 210.827C139.942 210.545 140.622 210.404 141.386 210.404C142.133 210.404 142.792 210.531 143.362 210.786C143.932 211.04 144.385 211.392 144.723 211.84C145.066 212.288 145.265 212.8 145.321 213.375H143.785C143.719 213.038 143.577 212.747 143.362 212.504C143.146 212.26 142.869 212.072 142.532 211.939C142.194 211.801 141.804 211.732 141.361 211.732C140.647 211.732 140.072 211.906 139.635 212.255C139.197 212.604 138.979 213.057 138.979 213.616C138.979 214.015 139.114 214.349 139.386 214.621C139.662 214.892 140.058 215.094 140.573 215.227L142.507 215.733C143.171 215.91 143.721 216.134 144.158 216.405C144.596 216.676 144.922 217.011 145.138 217.41C145.354 217.808 145.462 218.281 145.462 218.829C145.462 219.515 145.287 220.116 144.939 220.63C144.596 221.139 144.106 221.535 143.469 221.817C142.839 222.094 142.086 222.232 141.212 222.232C140.614 222.232 140.072 222.158 139.585 222.008C139.098 221.859 138.677 221.646 138.323 221.369C137.969 221.092 137.687 220.766 137.476 220.39C137.272 220.008 137.15 219.587 137.111 219.128ZM154.866 220.655V222H148.018V210.669H154.866V212.014H149.537V215.567H154.568V216.878H149.537V220.655H154.866ZM161.789 220.871C162.642 220.871 163.319 220.619 163.823 220.116C164.327 219.607 164.578 218.915 164.578 218.041V210.669H166.114V218.09C166.114 218.915 165.934 219.64 165.574 220.265C165.215 220.89 164.711 221.375 164.064 221.718C163.416 222.061 162.658 222.232 161.789 222.232C160.921 222.232 160.162 222.061 159.515 221.718C158.867 221.375 158.364 220.89 158.004 220.265C157.644 219.64 157.465 218.915 157.465 218.09V210.669H158.992V218.041C158.992 218.915 159.244 219.607 159.747 220.116C160.256 220.619 160.937 220.871 161.789 220.871ZM176.996 220.979C176.996 220.625 177.11 220.337 177.337 220.116C177.569 219.889 177.849 219.775 178.175 219.775C178.524 219.775 178.814 219.889 179.047 220.116C179.279 220.343 179.395 220.63 179.395 220.979C179.395 221.311 179.279 221.59 179.047 221.817C178.814 222.039 178.524 222.149 178.175 222.149C177.849 222.149 177.569 222.039 177.337 221.817C177.11 221.59 176.996 221.311 176.996 220.979ZM172.921 220.979C172.921 220.625 173.034 220.337 173.261 220.116C173.493 219.889 173.773 219.775 174.099 219.775C174.442 219.775 174.73 219.889 174.963 220.116C175.201 220.343 175.32 220.63 175.32 220.979C175.32 221.311 175.201 221.59 174.963 221.817C174.73 222.039 174.442 222.149 174.099 222.149C173.773 222.149 173.493 222.039 173.261 221.817C173.034 221.59 172.921 221.311 172.921 220.979ZM168.837 220.979C168.837 220.625 168.953 220.337 169.185 220.116C169.418 219.889 169.697 219.775 170.024 219.775C170.367 219.775 170.655 219.889 170.887 220.116C171.119 220.343 171.236 220.63 171.236 220.979C171.236 221.311 171.119 221.59 170.887 221.817C170.655 222.039 170.367 222.149 170.024 222.149C169.697 222.149 169.418 222.039 169.185 221.817C168.953 221.59 168.837 221.311 168.837 220.979Z" fill="white"/>
<path d="M26.9182 242H25.7229V232.047H25.6565C25.3632 232.258 25.0699 232.471 24.7766 232.687C24.4833 232.897 24.1873 233.107 23.8884 233.317C23.5951 233.528 23.2991 233.741 23.0003 233.957V232.678C23.454 232.346 23.9078 232.014 24.3616 231.682C24.8154 231.345 25.2691 231.01 25.7229 230.678H26.9182V242ZM34.4719 242H33.2766V232.047H33.2102C32.9169 232.258 32.6236 232.471 32.3303 232.687C32.037 232.897 31.741 233.107 31.4422 233.317C31.1489 233.528 30.8528 233.741 30.554 233.957V232.678C31.0077 232.346 31.4615 232.014 31.9153 231.682C32.3691 231.345 32.8229 231.01 33.2766 230.678H34.4719V242ZM38.3401 242V230.072H39.5354V234.928H39.6018C39.6627 234.712 39.7927 234.468 39.992 234.197C40.1912 233.921 40.4789 233.68 40.8552 233.475C41.2371 233.27 41.7324 233.168 42.3411 233.168C43.1822 233.168 43.8823 233.411 44.4412 233.898C45.0001 234.38 45.2796 235.108 45.2796 236.082V242H44.0759V236.463C44.0759 235.993 43.9929 235.592 43.8269 235.26C43.6609 234.928 43.4229 234.676 43.1131 234.504C42.8032 234.327 42.4296 234.239 41.9924 234.239C41.4501 234.239 40.9964 234.369 40.6311 234.629C40.2659 234.883 39.992 235.229 39.8093 235.667C39.6267 236.098 39.5354 236.577 39.5354 237.103V242H38.3401ZM49.1145 236.131V236.555C49.1145 237.518 49.228 238.342 49.4548 239.028C49.6873 239.715 50.0082 240.243 50.4177 240.614C50.8328 240.979 51.3142 241.162 51.8621 241.162C52.4155 241.162 52.8969 240.979 53.3064 240.614C53.7159 240.243 54.0341 239.715 54.261 239.028C54.4879 238.342 54.6013 237.518 54.6013 236.555V236.131C54.6013 235.174 54.4879 234.352 54.261 233.666C54.0341 232.974 53.7159 232.443 53.3064 232.072C52.8969 231.696 52.4155 231.508 51.8621 231.508C51.3142 231.508 50.8328 231.696 50.4177 232.072C50.0082 232.443 49.6873 232.974 49.4548 233.666C49.228 234.352 49.1145 235.174 49.1145 236.131ZM47.9192 236.571V236.131C47.9192 234.98 48.0742 233.979 48.384 233.126C48.6995 232.269 49.1505 231.605 49.7371 231.134C50.3292 230.664 51.0403 230.429 51.8704 230.429C52.7005 230.429 53.4088 230.664 53.9954 231.134C54.582 231.605 55.0302 232.266 55.3401 233.118C55.65 233.97 55.8049 234.975 55.8049 236.131V236.571C55.8049 237.429 55.7164 238.209 55.5393 238.912C55.3622 239.609 55.1049 240.207 54.7673 240.705C54.4298 241.198 54.0175 241.577 53.5305 241.842C53.0436 242.108 52.4874 242.241 51.8621 242.241C51.0375 242.241 50.3292 242.008 49.7371 241.543C49.145 241.073 48.6939 240.415 48.384 239.568C48.0742 238.721 47.9192 237.722 47.9192 236.571ZM59.3245 236.131V236.555C59.3245 237.518 59.4379 238.342 59.6648 239.028C59.8972 239.715 60.2182 240.243 60.6277 240.614C61.0427 240.979 61.5242 241.162 62.072 241.162C62.6254 241.162 63.1069 240.979 63.5164 240.614C63.9259 240.243 64.2441 239.715 64.471 239.028C64.6979 238.342 64.8113 237.518 64.8113 236.555V236.131C64.8113 235.174 64.6979 234.352 64.471 233.666C64.2441 232.974 63.9259 232.443 63.5164 232.072C63.1069 231.696 62.6254 231.508 62.072 231.508C61.5242 231.508 61.0427 231.696 60.6277 232.072C60.2182 232.443 59.8972 232.974 59.6648 233.666C59.4379 234.352 59.3245 235.174 59.3245 236.131ZM58.1292 236.571V236.131C58.1292 234.98 58.2841 233.979 58.594 233.126C58.9094 232.269 59.3604 231.605 59.947 231.134C60.5392 230.664 61.2503 230.429 62.0803 230.429C62.9104 230.429 63.6187 230.664 64.2053 231.134C64.7919 231.605 65.2402 232.266 65.5501 233.118C65.86 233.97 66.0149 234.975 66.0149 236.131V236.571C66.0149 237.429 65.9264 238.209 65.7493 238.912C65.5722 239.609 65.3149 240.207 64.9773 240.705C64.6397 241.198 64.2275 241.577 63.7405 241.842C63.2535 242.108 62.6974 242.241 62.072 242.241C61.2475 242.241 60.5392 242.008 59.947 241.543C59.3549 241.073 58.9039 240.415 58.594 239.568C58.2841 238.721 58.1292 237.722 58.1292 236.571ZM77.1214 237.883H71.8919V236.812H77.1214V237.883ZM87.0823 242H85.887V232.047H85.8206C85.5273 232.258 85.234 232.471 84.9407 232.687C84.6474 232.897 84.3513 233.107 84.0525 233.317C83.7592 233.528 83.4632 233.741 83.1643 233.957V232.678C83.6181 232.346 84.0719 232.014 84.5257 231.682C84.9794 231.345 85.4332 231.01 85.887 230.678H87.0823V242ZM91.7971 233.724H90.6101V233.683C90.6101 233.257 90.6848 232.85 90.8342 232.462C90.9837 232.075 91.205 231.729 91.4983 231.425C91.7971 231.12 92.1624 230.88 92.594 230.703C93.0257 230.52 93.5265 230.429 94.0965 230.429C94.7993 230.429 95.4052 230.564 95.9143 230.835C96.429 231.107 96.8246 231.475 97.1013 231.939C97.3836 232.399 97.5247 232.919 97.5247 233.5C97.5247 233.965 97.4389 234.391 97.2673 234.778C97.1013 235.16 96.8772 235.534 96.595 235.899C96.3128 236.264 95.9973 236.649 95.6487 237.053L92.3699 240.83V240.913H97.7571V242H90.6267V241.211L94.9514 236.214C95.1673 235.965 95.3748 235.708 95.574 235.442C95.7787 235.177 95.9475 234.889 96.0803 234.579C96.2132 234.269 96.2796 233.932 96.2796 233.566C96.2796 233.151 96.1855 232.789 95.9973 232.479C95.8147 232.169 95.5574 231.931 95.2254 231.765C94.8933 231.594 94.5087 231.508 94.0715 231.508C93.5901 231.508 93.1778 231.61 92.8347 231.815C92.4972 232.014 92.2398 232.28 92.0628 232.612C91.8857 232.944 91.7971 233.301 91.7971 233.683C91.7971 233.688 91.7971 233.696 91.7971 233.708C91.7971 233.713 91.7971 233.719 91.7971 233.724ZM100.314 242V230.072H101.509V234.928H101.575C101.636 234.712 101.766 234.468 101.966 234.197C102.165 233.921 102.453 233.68 102.829 233.475C103.211 233.27 103.706 233.168 104.315 233.168C105.156 233.168 105.856 233.411 106.415 233.898C106.974 234.38 107.253 235.108 107.253 236.082V242H106.05V236.463C106.05 235.993 105.967 235.592 105.801 235.26C105.635 234.928 105.397 234.676 105.087 234.504C104.777 234.327 104.403 234.239 103.966 234.239C103.424 234.239 102.97 234.369 102.605 234.629C102.24 234.883 101.966 235.229 101.783 235.667C101.6 236.098 101.509 236.577 101.509 237.103V242H100.314ZM111.088 236.131V236.555C111.088 237.518 111.202 238.342 111.428 239.028C111.661 239.715 111.982 240.243 112.391 240.614C112.806 240.979 113.288 241.162 113.836 241.162C114.389 241.162 114.871 240.979 115.28 240.614C115.69 240.243 116.008 239.715 116.235 239.028C116.462 238.342 116.575 237.518 116.575 236.555V236.131C116.575 235.174 116.462 234.352 116.235 233.666C116.008 232.974 115.69 232.443 115.28 232.072C114.871 231.696 114.389 231.508 113.836 231.508C113.288 231.508 112.806 231.696 112.391 232.072C111.982 232.443 111.661 232.974 111.428 233.666C111.202 234.352 111.088 235.174 111.088 236.131ZM109.893 236.571V236.131C109.893 234.98 110.048 233.979 110.358 233.126C110.673 232.269 111.124 231.605 111.711 231.134C112.303 230.664 113.014 230.429 113.844 230.429C114.674 230.429 115.382 230.664 115.969 231.134C116.556 231.605 117.004 232.266 117.314 233.118C117.624 233.97 117.779 234.975 117.779 236.131V236.571C117.779 237.429 117.69 238.209 117.513 238.912C117.336 239.609 117.079 240.207 116.741 240.705C116.403 241.198 115.991 241.577 115.504 241.842C115.017 242.108 114.461 242.241 113.836 242.241C113.011 242.241 112.303 242.008 111.711 241.543C111.119 241.073 110.668 240.415 110.358 239.568C110.048 238.721 109.893 237.722 109.893 236.571ZM121.298 236.131V236.555C121.298 237.518 121.412 238.342 121.638 239.028C121.871 239.715 122.192 240.243 122.601 240.614C123.016 240.979 123.498 241.162 124.046 241.162C124.599 241.162 125.081 240.979 125.49 240.614C125.9 240.243 126.218 239.715 126.445 239.028C126.671 238.342 126.785 237.518 126.785 236.555V236.131C126.785 235.174 126.671 234.352 126.445 233.666C126.218 232.974 125.9 232.443 125.49 232.072C125.081 231.696 124.599 231.508 124.046 231.508C123.498 231.508 123.016 231.696 122.601 232.072C122.192 232.443 121.871 232.974 121.638 233.666C121.412 234.352 121.298 235.174 121.298 236.131ZM120.103 236.571V236.131C120.103 234.98 120.258 233.979 120.568 233.126C120.883 232.269 121.334 231.605 121.921 231.134C122.513 230.664 123.224 230.429 124.054 230.429C124.884 230.429 125.592 230.664 126.179 231.134C126.766 231.605 127.214 232.266 127.524 233.118C127.834 233.97 127.989 234.975 127.989 236.131V236.571C127.989 237.429 127.9 238.209 127.723 238.912C127.546 239.609 127.289 240.207 126.951 240.705C126.613 241.198 126.201 241.577 125.714 241.842C125.227 242.108 124.671 242.241 124.046 242.241C123.221 242.241 122.513 242.008 121.921 241.543C121.329 241.073 120.878 240.415 120.568 239.568C120.258 238.721 120.103 237.722 120.103 236.571Z" fill="white"/>
</g>
<defs>
<linearGradient id="paint0_linear_1878_1594" x1="99" y1="0" x2="99" y2="242" gradientUnits="userSpaceOnUse">
<stop stop-color="#0065A8" stop-opacity="0.4"/>
<stop offset="1" stop-color="#0065A8"/>
</linearGradient>
<clipPath id="clip0_1878_1594">
<rect width="198" height="242" fill="white"/>
</clipPath>
</defs>
</svg>
